<svg width="149" height="103" viewBox="0 0 149 103" fill="none" xmlns="http://www.w3.org/2000/svg">
<path opacity="0.2" d="M0.46 89.176V14.424L14.284 0.599998H51.916L65.74 14.424V89.176L51.916 103H14.284L0.46 89.176ZM40.908 83.928L45.644 79.32V24.28L40.908 19.672H25.292L20.556 24.28V79.32L25.292 83.928H40.908ZM83.71 68.312L127.87 30.552V24.28L123.262 19.672H108.542L103.806 24.28V37.08L83.71 30.04V14.424L97.534 0.599998H135.166L148.99 14.424V39.896L103.806 77.656V83.928H128.894V69.464L148.99 76.504V103H83.71V68.312Z" fill="#3D42DF"/>
</svg>
