<svg width="155" height="103" viewBox="0 0 155 103" fill="none" xmlns="http://www.w3.org/2000/svg">
<path opacity="0.2" d="M0.335 89.176V14.424L14.159 0.599998H51.791L65.615 14.424V89.176L51.791 103H14.159L0.335 89.176ZM40.783 83.928L45.519 79.32V24.28L40.783 19.672H25.167L20.431 24.28V79.32L25.167 83.928H40.783ZM121.473 89.304V84.184H80.769V64.088L104.705 7.896L105.601 0.599998H132.993L124.929 11.224L102.145 65.112H121.473V55.896L117.889 42.2H144.001L140.545 55.896V65.112H144.001L154.241 62.552L150.401 84.184H140.545V89.304L144.001 103H117.889L121.473 89.304Z" fill="#3D42DF"/>
</svg>
