<svg width="152" height="104" viewBox="0 0 152 104" fill="none" xmlns="http://www.w3.org/2000/svg">
<path opacity="0.2" d="M0.46 89.176V14.424L14.284 0.599998H51.916L65.74 14.424V89.176L51.916 103H14.284L0.46 89.176ZM40.908 83.928L45.644 79.32V24.28L40.908 19.672H25.292L20.556 24.28V79.32L25.292 83.928H40.908ZM83.71 89.304V79.96L103.806 67.928V79.448L108.542 84.056H126.334L130.942 79.448V64.6L126.334 59.992H98.814L84.99 46.168L84.862 0.599998H149.758V23.128L129.662 32.6V19.8H105.214V36.312L109.822 40.92H137.214L151.038 54.744V89.304L137.214 103.128H97.534L83.71 89.304Z" fill="#3D42DF"/>
</svg>
