<svg width="149" height="103" viewBox="0 0 149 103" fill="none" xmlns="http://www.w3.org/2000/svg">
<path opacity="0.2" d="M0.46 89.176V14.424L14.284 0.599998H51.916L65.74 14.424V89.176L51.916 103H14.284L0.46 89.176ZM40.908 83.928L45.644 79.32V24.28L40.908 19.672H25.292L20.556 24.28V79.32L25.292 83.928H40.908ZM83.71 89.176V14.424L97.534 0.599998H135.166L148.99 14.424V27.096L128.894 35.288V24.28L124.158 19.672H108.542L103.806 24.28V45.656L109.054 40.92H135.166L148.99 54.744V89.176L135.166 103H97.534L83.71 89.176ZM124.286 83.928L128.894 79.32V64.6L124.286 59.992H108.542L103.806 64.6V79.32L108.542 83.928H124.286Z" fill="#3D42DF"/>
</svg>
