<svg width="24" height="24" viewBox="0 0 24 24" fill="none" xmlns="http://www.w3.org/2000/svg">
<path d="M7.24 2H5.34C3.15 2 2 3.15 2 5.33V7.23C2 9.41 3.15 10.56 5.33 10.56H7.23C9.41 10.56 10.56 9.41 10.56 7.23V5.33C10.57 3.15 9.42 2 7.24 2Z" fill="white"/>
<path d="M18.6695 2H16.7695C14.5895 2 13.4395 3.15 13.4395 5.33V7.23C13.4395 9.41 14.5895 10.56 16.7695 10.56H18.6695C20.8495 10.56 21.9995 9.41 21.9995 7.23V5.33C21.9995 3.15 20.8495 2 18.6695 2Z" fill="white"/>
<path d="M18.6695 13.4301H16.7695C14.5895 13.4301 13.4395 14.5801 13.4395 16.7601V18.6601C13.4395 20.8401 14.5895 21.9901 16.7695 21.9901H18.6695C20.8495 21.9901 21.9995 20.8401 21.9995 18.6601V16.7601C21.9995 14.5801 20.8495 13.4301 18.6695 13.4301Z" fill="white"/>
<path d="M7.24 13.4301H5.34C3.15 13.4301 2 14.5801 2 16.7601V18.6601C2 20.8501 3.15 22.0001 5.33 22.0001H7.23C9.41 22.0001 10.56 20.8501 10.56 18.6701V16.7701C10.57 14.5801 9.42 13.4301 7.24 13.4301Z" fill="white"/>
</svg>
