<svg width="115" height="34" viewBox="0 0 115 34" fill="none" xmlns="http://www.w3.org/2000/svg">
<path d="M71.3278 26.5619C64.6529 31.3812 54.9781 33.9525 46.6483 33.9525C34.9685 33.9525 24.4537 29.7209 16.4989 22.683C15.8739 22.1295 16.4339 21.3753 17.1839 21.8063C25.7687 26.699 36.3835 29.6425 47.3483 29.6425C54.7431 29.6425 62.8779 28.1439 70.3578 25.0338C71.4878 24.5637 72.4327 25.7587 71.3278 26.5619Z" fill="black"/>
<path d="M74.1033 23.4521C73.2533 22.3844 68.4634 22.9477 66.3134 23.1975C65.6584 23.2758 65.5584 22.7175 66.1484 22.3159C69.9633 19.6858 76.2232 20.445 76.9532 21.3266C77.6832 22.213 76.7632 28.3596 73.1783 31.2933C72.6283 31.7439 72.1033 31.5039 72.3483 30.9064C73.1533 28.9375 74.9582 24.5247 74.1033 23.4521Z" fill="black"/>
<path d="M66.4628 3.74847V1.1919C66.4628 0.804985 66.7628 0.54541 67.1228 0.54541H78.8076C79.1826 0.54541 79.4826 0.809883 79.4826 1.1919V3.38115C79.4776 3.74847 79.1626 4.22844 78.6026 4.98758L72.5477 13.4556C74.7977 13.4017 77.1726 13.7299 79.2126 14.8563C79.6726 15.111 79.7976 15.4832 79.8326 15.8506V18.5786C79.8326 18.9508 79.4126 19.3867 78.9726 19.1614C75.3777 17.315 70.6027 17.1142 66.6278 19.181C66.2228 19.3965 65.7979 18.9655 65.7979 18.5933V16.0024C65.7979 15.5861 65.8028 14.8759 66.2278 14.2441L73.2427 4.39007H67.1378C66.7628 4.39007 66.4628 4.13049 66.4628 3.74847Z" fill="black"/>
<path d="M23.8393 19.7001H20.2844C19.9444 19.6757 19.6744 19.4259 19.6494 19.1075V1.236C19.6494 0.878471 19.9544 0.594405 20.3344 0.594405H23.6493C23.9943 0.609088 24.2693 0.868673 24.2943 1.19192V3.5281H24.3593C25.2243 1.27028 26.8493 0.217285 29.0392 0.217285C31.2642 0.217285 32.6541 1.27028 33.6541 3.5281C34.5141 1.27028 36.4691 0.217285 38.564 0.217285C40.054 0.217285 41.684 0.819696 42.6789 2.17145C43.8039 3.67503 43.5739 5.85938 43.5739 7.77436L43.5689 19.0537C43.5689 19.4112 43.2639 19.7001 42.8839 19.7001H39.334C38.979 19.6757 38.694 19.3965 38.694 19.0537V9.5816C38.694 8.82736 38.764 6.94666 38.594 6.2316C38.329 5.03168 37.534 4.69374 36.5041 4.69374C35.6441 4.69374 34.7441 5.25697 34.3791 6.15814C34.0141 7.05931 34.0491 8.56778 34.0491 9.5816V19.0537C34.0491 19.4112 33.7441 19.7001 33.3641 19.7001H29.8142C29.4542 19.6757 29.1742 19.3965 29.1742 19.0537L29.1692 9.5816C29.1692 7.58825 29.5042 4.65456 26.9793 4.65456C24.4243 4.65456 24.5243 7.51478 24.5243 9.5816V19.0537C24.5243 19.4112 24.2193 19.7001 23.8393 19.7001Z" fill="black"/>
<path d="M89.5428 0.217285C94.8177 0.217285 97.6726 4.65456 97.6726 10.2967C97.6726 15.7477 94.5177 20.0724 89.5428 20.0724C84.3629 20.0724 81.543 15.6351 81.543 10.1056C81.543 4.54191 84.3979 0.217285 89.5428 0.217285ZM89.5728 3.86604C86.9529 3.86604 86.7879 7.36296 86.7879 9.54242C86.7879 11.7268 86.7529 16.3893 89.5428 16.3893C92.2978 16.3893 92.4277 12.6279 92.4277 10.3358C92.4277 8.82736 92.3627 7.02502 91.8978 5.59491C91.4978 4.35091 90.7028 3.86604 89.5728 3.86604Z" fill="black"/>
<path d="M104.512 19.7001H100.972C100.617 19.6757 100.332 19.3965 100.332 19.0537L100.327 1.17722C100.357 0.849082 100.652 0.594405 101.012 0.594405H104.307C104.617 0.609088 104.872 0.8148 104.942 1.09397V3.82685H105.007C106.002 1.38293 107.397 0.217285 109.852 0.217285C111.447 0.217285 113.002 0.780516 114.002 2.32327C114.932 3.75339 114.932 6.15814 114.932 7.88701V19.1369C114.892 19.4504 114.597 19.7001 114.247 19.7001H110.682C110.357 19.6757 110.087 19.4406 110.052 19.1369V9.42977C110.052 7.47561 110.282 4.61538 107.827 4.61538C106.962 4.61538 106.167 5.18351 105.772 6.04549C105.272 7.13767 105.207 8.22495 105.207 9.42977V19.0537C105.202 19.4112 104.892 19.7001 104.512 19.7001Z" fill="black"/>
<path d="M57.1486 11.1636V10.4093C54.5787 10.4093 51.8637 10.9481 51.8637 13.9161C51.8637 15.4196 52.6587 16.4383 54.0237 16.4383C55.0237 16.4383 55.9186 15.8359 56.4836 14.8564C57.1836 13.6516 57.1486 12.5202 57.1486 11.1636ZM60.7335 19.6512C60.4985 19.8569 60.1585 19.8716 59.8935 19.7345C58.7136 18.7745 58.5036 18.3288 57.8536 17.413C55.9036 19.3622 54.5237 19.9451 51.9937 19.9451C49.0038 19.9451 46.6738 18.1378 46.6738 14.5185C46.6738 11.6925 48.2388 9.76774 50.4637 8.82739C52.3937 7.99479 55.0887 7.84786 57.1486 7.61767V7.16709C57.1486 6.33938 57.2136 5.35985 56.7186 4.6448C56.2836 4.0032 55.4536 3.73873 54.7237 3.73873C53.3687 3.73873 52.1587 4.4195 51.8637 5.83003C51.8037 6.14348 51.5687 6.45203 51.2487 6.46672L47.7988 6.10429C47.5088 6.04063 47.1888 5.81043 47.2688 5.37455C48.0638 1.28011 51.8387 0.0458984 55.2187 0.0458984C56.9486 0.0458984 59.2086 0.496482 60.5735 1.77967C62.3035 3.36161 62.1385 5.4725 62.1385 7.7695V13.1961C62.1385 14.827 62.8285 15.5421 63.4785 16.4237C63.7085 16.7371 63.7585 17.1142 63.4685 17.3493C62.7435 17.9419 61.4535 19.0439 60.7435 19.661L60.7335 19.6512" fill="black"/>
<path d="M10.5441 11.1636V10.4093C7.97417 10.4093 5.25923 10.9481 5.25923 13.9161C5.25923 15.4196 6.05421 16.4383 7.41918 16.4383C8.41916 16.4383 9.31414 15.8359 9.87913 14.8564C10.5791 13.6516 10.5441 12.5202 10.5441 11.1636ZM14.129 19.6512C13.894 19.8569 13.5541 19.8716 13.2891 19.7345C12.1091 18.7745 11.8991 18.3288 11.2491 17.413C9.29914 19.3622 7.91917 19.9451 5.38922 19.9451C2.39928 19.9451 0.0693359 18.1378 0.0693359 14.5185C0.0693359 11.6925 1.6343 9.76774 3.85926 8.82739C5.78922 7.99479 8.48416 7.84786 10.5441 7.61767V7.16709C10.5441 6.33938 10.6091 5.35985 10.1141 4.6448C9.67913 4.0032 8.84915 3.73873 8.11917 3.73873C6.7642 3.73873 5.55422 4.4195 5.25923 5.83003C5.19923 6.14348 4.96423 6.45203 4.64424 6.46672L1.19431 6.10429C0.904318 6.04063 0.584324 5.81043 0.664323 5.37455C1.45931 1.28011 5.23423 0.0458984 8.61416 0.0458984C10.3441 0.0458984 12.6041 0.496482 13.969 1.77967C15.699 3.36161 15.534 5.4725 15.534 7.7695V13.1961C15.534 14.827 16.224 15.5421 16.874 16.4237C17.104 16.7371 17.154 17.1142 16.864 17.3493C16.139 17.9419 14.849 19.0439 14.139 19.661L14.129 19.6512" fill="black"/>
</svg>
