<svg width="118" height="36" viewBox="0 0 118 36" fill="none" xmlns="http://www.w3.org/2000/svg">
<path d="M73.1692 28.0539C66.3154 33.1528 56.3812 35.8732 47.8281 35.8732C35.8352 35.8732 25.0385 31.3962 16.8704 23.95C16.2287 23.3644 16.8036 22.5664 17.5737 23.0224C26.3887 28.199 37.2881 31.3133 48.5468 31.3133C56.1399 31.3133 64.4929 29.7276 72.1732 26.4372C73.3335 25.9398 74.3038 27.2041 73.1692 28.0539Z" fill="#FF9900"/>
<path d="M76.0184 24.7634C75.1456 23.6337 70.2273 24.2296 68.0197 24.4939C67.3471 24.5768 67.2445 23.9861 67.8503 23.5612C71.7675 20.7786 78.1952 21.5817 78.9447 22.5145C79.6943 23.4524 78.7496 29.9555 75.0686 33.0594C74.5039 33.5361 73.9648 33.2822 74.2164 32.65C75.0429 30.5669 76.8963 25.8982 76.0184 24.7634Z" fill="#FF9900"/>
<path d="M68.174 3.91744V1.21256C68.174 0.803198 68.4821 0.528564 68.8517 0.528564H80.8497C81.2348 0.528564 81.5428 0.80838 81.5428 1.21256V3.52881C81.5377 3.91744 81.2142 4.42525 80.6392 5.22843L74.422 14.1877C76.7323 14.1307 79.1709 14.4779 81.2656 15.6697C81.7379 15.9391 81.8663 16.333 81.9022 16.7216V19.6078C81.9022 20.0017 81.4709 20.4628 81.0192 20.2245C77.3279 18.2709 72.4249 18.0585 68.3434 20.2452C67.9276 20.4732 67.4912 20.0172 67.4912 19.6234V16.8822C67.4912 16.4418 67.4963 15.6904 67.9327 15.022L75.1357 4.59625H68.8671C68.4821 4.59625 68.174 4.32162 68.174 3.91744Z" fill="#221F1F"/>
<path d="M24.4067 20.7945H20.7565C20.4074 20.7686 20.1302 20.5043 20.1045 20.1675V1.25921C20.1045 0.880938 20.4177 0.580393 20.8078 0.580393H24.2116C24.5659 0.595929 24.8483 0.870572 24.8739 1.21257V3.68428H24.9407C25.8288 1.29548 27.4974 0.181396 29.746 0.181396C32.0306 0.181396 33.4579 1.29548 34.4847 3.68428C35.3677 1.29548 37.3751 0.181396 39.5262 0.181396C41.0561 0.181396 42.7298 0.818754 43.7514 2.24892C44.9066 3.83973 44.6704 6.15079 44.6704 8.17687L44.6653 20.1105C44.6653 20.4888 44.3521 20.7945 43.9619 20.7945H40.3168C39.9523 20.7686 39.6597 20.4732 39.6597 20.1105V10.0889C39.6597 9.29095 39.7316 7.30115 39.557 6.54461C39.2849 5.27508 38.4686 4.91753 37.411 4.91753C36.528 4.91753 35.6039 5.51344 35.2291 6.46688C34.8543 7.42033 34.8903 9.01631 34.8903 10.0889V20.1105C34.8903 20.4888 34.5771 20.7945 34.1869 20.7945H30.5418C30.1722 20.7686 29.8847 20.4732 29.8847 20.1105L29.8795 10.0889C29.8795 7.97996 30.2235 4.87608 27.6309 4.87608C25.0074 4.87608 25.1101 7.90223 25.1101 10.0889V20.1105C25.1101 20.4888 24.7969 20.7945 24.4067 20.7945Z" fill="#221F1F"/>
<path d="M91.8725 0.181396C97.2888 0.181396 100.22 4.87608 100.22 10.8455C100.22 16.6128 96.9808 21.1883 91.8725 21.1883C86.5538 21.1883 83.6582 16.4936 83.6582 10.6434C83.6582 4.7569 86.5897 0.181396 91.8725 0.181396ZM91.9033 4.04182C89.2131 4.04182 89.0437 7.7416 89.0437 10.0475C89.0437 12.3586 89.0078 17.2916 91.8725 17.2916C94.7013 17.2916 94.8348 13.312 94.8348 10.8869C94.8348 9.29095 94.7681 7.38406 94.2906 5.87098C93.8799 4.55481 93.0636 4.04182 91.9033 4.04182Z" fill="#221F1F"/>
<path d="M107.242 20.7945H103.608C103.243 20.7686 102.95 20.4732 102.95 20.1105L102.945 1.19702C102.976 0.849844 103.279 0.580393 103.649 0.580393H107.032C107.35 0.595929 107.612 0.813573 107.684 1.10893V4.00036H107.751C108.772 1.41466 110.205 0.181396 112.725 0.181396C114.363 0.181396 115.96 0.777301 116.987 2.40956C117.942 3.92263 117.942 6.46689 117.942 8.29605V20.1986C117.9 20.5302 117.598 20.7945 117.238 20.7945H113.578C113.244 20.7686 112.967 20.5198 112.931 20.1986V9.92831C112.931 7.86078 113.167 4.83462 110.646 4.83462C109.758 4.83462 108.942 5.43571 108.536 6.3477C108.023 7.50324 107.956 8.65359 107.956 9.92831V20.1105C107.951 20.4888 107.633 20.7945 107.242 20.7945Z" fill="#221F1F"/>
<path d="M58.6091 11.7626V10.9646C55.9703 10.9646 53.1826 11.5346 53.1826 14.6748C53.1826 16.2656 53.9988 17.3434 55.4004 17.3434C56.4272 17.3434 57.3462 16.706 57.9263 15.6697C58.6451 14.395 58.6091 13.198 58.6091 11.7626ZM62.2902 20.7426C62.0489 20.9603 61.6998 20.9758 61.4277 20.8307C60.2161 19.8151 60.0004 19.3435 59.333 18.3746C57.3308 20.4369 55.9138 21.0535 53.316 21.0535C50.2459 21.0535 47.8535 19.1415 47.8535 15.3121C47.8535 12.3222 49.4604 10.2858 51.745 9.29091C53.7267 8.41001 56.4939 8.25456 58.6091 8.01102V7.53429C58.6091 6.65857 58.6759 5.62222 58.1676 4.86568C57.721 4.18687 56.8687 3.90705 56.1192 3.90705C54.7279 3.90705 53.4855 4.62732 53.1826 6.11967C53.1209 6.4513 52.8796 6.77776 52.5511 6.7933L49.0087 6.40985C48.7109 6.34249 48.3823 6.09894 48.4645 5.63777C49.2808 1.30581 53.1569 0 56.6274 0C58.4038 0 60.7243 0.476723 62.1259 1.83435C63.9022 3.50806 63.7328 5.7414 63.7328 8.17165V13.9131C63.7328 15.6386 64.4413 16.3951 65.1087 17.3278C65.3449 17.6595 65.3962 18.0585 65.0984 18.3072C64.354 18.9342 63.0295 20.1001 62.3004 20.753L62.2902 20.7426" fill="#221F1F"/>
<path d="M10.7556 11.7626V10.9646C8.11677 10.9646 5.32903 11.5346 5.32903 14.6748C5.32903 16.2656 6.14533 17.3434 7.5469 17.3434C8.57369 17.3434 9.49266 16.706 10.0728 15.6697C10.7916 14.395 10.7556 13.198 10.7556 11.7626ZM14.4367 20.7426C14.1954 20.9603 13.8462 20.9758 13.5742 20.8307C12.3625 19.8151 12.1469 19.3435 11.4795 18.3746C9.47726 20.4369 8.0603 21.0535 5.46252 21.0535C2.39242 21.0535 0 19.1415 0 15.3121C0 12.3222 1.60692 10.2858 3.89153 9.29091C5.87323 8.41001 8.64043 8.25456 10.7556 8.01102V7.53429C10.7556 6.65857 10.8224 5.62222 10.3141 4.86568C9.86744 4.18687 9.01521 3.90705 8.26565 3.90705C6.87435 3.90705 5.63194 4.62732 5.32903 6.11967C5.26743 6.4513 5.02613 6.77776 4.69756 6.7933L1.15514 6.40985C0.857368 6.34249 0.528795 6.09894 0.610939 5.63777C1.42724 1.30581 5.30336 0 8.77391 0C10.5503 0 12.8708 0.476723 14.2724 1.83435C16.0487 3.50806 15.8793 5.7414 15.8793 8.17165V13.9131C15.8793 15.6386 16.5878 16.3951 17.2552 17.3278C17.4914 17.6595 17.5427 18.0585 17.2449 18.3072C16.5005 18.9342 15.1759 20.1001 14.4469 20.753L14.4367 20.7426" fill="#221F1F"/>
</svg>
