<svg width="128" height="30" viewBox="0 0 128 30" fill="none" xmlns="http://www.w3.org/2000/svg">
<path fill-rule="evenodd" clip-rule="evenodd" d="M0.527854 0.460031C0.192659 0.822484 0 1.38035 0 2.10525V27.8899C0 28.6148 0.192659 29.1726 0.540385 29.5225L0.631232 29.5997L14.9914 15.152V14.8274L0.618701 0.382812L0.527854 0.460031Z" fill="url(#paint0_linear_1407_8966)"/>
<path fill-rule="evenodd" clip-rule="evenodd" d="M19.7684 19.9868L14.9785 15.1662V14.8289L19.7699 10.0083L19.8733 10.0729L25.5403 13.3129C27.163 14.2332 27.163 15.7492 25.5403 16.6822L19.8733 19.9222C19.8717 19.9222 19.7684 19.9868 19.7684 19.9868Z" fill="url(#paint1_linear_1407_8966)"/>
<path fill-rule="evenodd" clip-rule="evenodd" d="M19.8715 19.9222L14.9783 14.9976L0.527344 29.5367C1.0552 30.1071 1.94331 30.1717 2.93636 29.6139L19.8715 19.9222Z" fill="url(#paint2_linear_1407_8966)"/>
<path fill-rule="evenodd" clip-rule="evenodd" d="M19.8715 10.0747L2.93636 0.395591C1.94487 -0.174878 1.0552 -0.0976599 0.527344 0.47281L14.9768 14.9977L19.8715 10.0747Z" fill="url(#paint3_linear_1407_8966)"/>
<path opacity="0.2" fill-rule="evenodd" clip-rule="evenodd" d="M19.7693 19.8184L2.95003 29.4328C2.01024 29.9765 1.17225 29.9387 0.631863 29.4454L0.541016 29.5368L0.631863 29.614C1.17225 30.1057 2.01024 30.1451 2.95003 29.6014L19.8852 19.9224L19.7693 19.8184Z" fill="black"/>
<path opacity="0.12" fill-rule="evenodd" clip-rule="evenodd" d="M25.5388 16.5136L19.7559 19.8182L19.8592 19.9222L25.5262 16.6822C26.3376 16.2157 26.737 15.6074 26.737 14.9976C26.6853 15.5554 26.2734 16.0865 25.5388 16.5136Z" fill="black"/>
<path opacity="0.25" fill-rule="evenodd" clip-rule="evenodd" d="M2.93687 0.564036L25.539 13.4831C26.2737 13.8976 26.6856 14.4413 26.7498 14.9991C26.7498 14.3908 26.3504 13.781 25.539 13.3145L2.93687 0.395416C1.31415 -0.537507 0 0.239404 0 2.10525V2.27387C0 0.408023 1.31415 -0.35628 2.93687 0.564036Z" fill="white"/>
<path fill-rule="evenodd" clip-rule="evenodd" d="M32.2668 14.1798C32.2668 10.0495 35.7174 6.68652 39.8228 6.68652C42.0924 6.68652 43.7073 7.5832 44.9259 8.75093L43.4911 10.1944C42.6203 9.37183 41.4392 8.7336 39.8212 8.7336C36.8233 8.7336 34.48 11.162 34.48 14.1783C34.48 17.1945 36.8233 19.6261 39.8197 19.6261C41.7635 19.6261 42.8693 18.8413 43.5789 18.1259C44.16 17.5412 44.5406 16.7013 44.6878 15.5493H39.8228V13.5069H46.6708C46.7428 13.8726 46.7804 14.3106 46.7804 14.785C46.7804 16.3183 46.3622 18.2204 45.0167 19.5741C43.7073 20.9451 42.0376 21.6763 39.8212 21.6763C35.7143 21.6763 32.2637 18.3165 32.2637 14.183L32.2668 14.1798ZM52.3159 12.024C49.6641 12.024 47.4994 14.0538 47.4994 16.8478C47.4994 19.6277 49.6625 21.6716 52.3159 21.6716C54.9692 21.6716 57.1292 19.6245 57.1292 16.8462C57.1292 14.0522 54.9677 12.0225 52.3159 12.024ZM52.3159 19.7742C50.8639 19.7742 49.6092 18.5687 49.6092 16.8494C49.6092 15.1128 50.8623 13.9246 52.3159 13.9246C53.7678 13.9246 55.0209 15.1112 55.0209 16.8494C55.0209 18.5671 53.7694 19.7742 52.3159 19.7742ZM62.8181 12.024C60.1663 12.024 58.0048 14.0538 58.0048 16.8478C58.0048 19.6277 60.1663 21.6716 62.8181 21.6716C65.4699 21.6716 67.6315 19.6245 67.6315 16.8462C67.6315 14.0522 65.4715 12.0225 62.8181 12.024ZM62.8181 19.7742C61.3661 19.7742 60.1115 18.5687 60.1115 16.8494C60.1115 15.1128 61.3646 13.9246 62.8181 13.9246C64.2701 13.9246 65.5247 15.1112 65.5247 16.8494C65.5247 18.5671 64.2701 19.7742 62.8181 19.7742ZM75.7075 12.3172V13.1019H75.6354C75.1639 12.5331 74.2555 12.0225 73.1121 12.0225C70.714 12.0225 68.5133 14.1436 68.5133 16.8683C68.5133 19.5709 70.7124 21.6747 73.1121 21.6747C74.2555 21.6747 75.1639 21.1642 75.6354 20.5795H75.7075V21.2729C75.7075 23.1183 74.7269 24.1063 73.1465 24.1063C71.8559 24.1063 71.057 23.1734 70.7297 22.3902L68.8939 23.1577C69.4202 24.4357 70.8205 26.0084 73.1449 26.0084C75.6135 26.0084 77.703 24.5444 77.703 20.9814V12.3156L75.7075 12.3172ZM73.2922 19.7742C71.8402 19.7742 70.62 18.5482 70.62 16.8683C70.62 15.1695 71.8386 13.9261 73.2922 13.9261C74.7269 13.9261 75.8531 15.1679 75.8531 16.8683C75.8547 18.5482 74.7285 19.7742 73.2922 19.7742ZM79.1581 7.19869H81.2664V21.3816H79.1581V7.19869ZM87.0446 19.7742C85.9732 19.7742 85.2088 19.2794 84.7217 18.3134L91.1343 15.6423L90.9134 15.0939C90.5156 14.0175 89.297 12.024 86.8081 12.024C84.338 12.024 82.2845 13.9797 82.2845 16.8494C82.2845 19.552 84.3192 21.6732 87.0446 21.6732C89.2437 21.6732 90.5156 20.3226 91.0419 19.5347L89.4066 18.4395C88.86 19.2447 88.1144 19.7758 87.0446 19.7742ZM86.8801 13.8883C87.715 13.8883 88.423 14.3091 88.6595 14.9111L84.3708 16.7028C84.3176 14.8386 85.8072 13.8883 86.8801 13.8883Z" fill="white"/>
<path fill-rule="evenodd" clip-rule="evenodd" d="M100.385 7.19873H95.3447V21.3817H97.4483V16.0095H100.387C102.719 16.0095 105.012 14.3107 105.012 11.6033C105.012 8.90068 102.721 7.20031 100.39 7.20031L100.385 7.19873ZM100.44 14.0349H97.4483V9.17174H100.44C102.013 9.17174 102.909 10.4844 102.909 11.6033C102.909 12.7033 102.013 14.0349 100.44 14.0349ZM108.275 21.3817V7.19873H106.171V21.3817H108.275ZM117.724 21.3565V15.9197C117.724 13.4014 115.854 11.9973 113.441 11.9973C111.92 11.9973 110.342 12.6733 109.689 14.1689L111.556 14.9521C111.956 14.1689 112.698 13.912 113.48 13.912C114.567 13.912 115.673 14.5691 115.69 15.7384V15.885C115.309 15.666 114.495 15.3366 113.495 15.3366C111.483 15.3366 109.434 16.4492 109.434 18.5293C109.434 20.4283 111.085 21.6496 112.935 21.6496C114.351 21.6496 115.129 21.0113 115.618 20.2644H115.69V21.3596H117.723L117.724 21.3565ZM113.19 19.7711C112.501 19.7711 111.539 19.4244 111.539 18.5687C111.539 17.4735 112.737 17.0512 113.771 17.0512C114.697 17.0512 115.131 17.2513 115.695 17.5255C115.533 18.7988 114.463 19.7554 113.19 19.7711ZM125.122 12.3077L122.71 18.4553H122.638L120.135 12.3077H117.869L121.622 20.9026L119.48 25.6823H121.675L127.459 12.3077H125.122Z" fill="white"/>
<defs>
<linearGradient id="paint0_linear_1407_8966" x1="13.7019" y1="1.82809" x2="-9.319" y2="7.92486" gradientUnits="userSpaceOnUse">
<stop stop-color="#00A0FF"/>
<stop offset="0.007" stop-color="#00A1FF"/>
<stop offset="0.26" stop-color="#00BEFF"/>
<stop offset="0.512" stop-color="#00D2FF"/>
<stop offset="0.76" stop-color="#00DFFF"/>
<stop offset="1" stop-color="#00E3FF"/>
</linearGradient>
<linearGradient id="paint1_linear_1407_8966" x1="27.6519" y1="14.9983" x2="-0.394707" y2="14.9983" gradientUnits="userSpaceOnUse">
<stop stop-color="#FFE000"/>
<stop offset="0.409" stop-color="#FFBD00"/>
<stop offset="0.775" stop-color="#FFA500"/>
<stop offset="1" stop-color="#FF9C00"/>
</linearGradient>
<linearGradient id="paint2_linear_1407_8966" x1="17.2108" y1="17.6766" x2="-1.42212" y2="48.8469" gradientUnits="userSpaceOnUse">
<stop stop-color="#FF3A44"/>
<stop offset="1" stop-color="#C31162"/>
</linearGradient>
<linearGradient id="paint3_linear_1407_8966" x1="-3.11032" y1="-8.117" x2="5.20241" y2="5.80421" gradientUnits="userSpaceOnUse">
<stop stop-color="#32A071"/>
<stop offset="0.069" stop-color="#2DA771"/>
<stop offset="0.476" stop-color="#15CF74"/>
<stop offset="0.801" stop-color="#06E775"/>
<stop offset="1" stop-color="#00F076"/>
</linearGradient>
</defs>
</svg>
