<svg width="115" height="34" viewBox="0 0 115 34" fill="none" xmlns="http://www.w3.org/2000/svg">
<g clip-path="url(#clip0_1358_8134)">
<path d="M71.3278 26.5619C64.6529 31.3812 54.9781 33.9525 46.6483 33.9525C34.9685 33.9525 24.4537 29.7209 16.4989 22.683C15.8739 22.1295 16.4339 21.3753 17.1839 21.8063C25.7687 26.699 36.3835 29.6425 47.3483 29.6425C54.7431 29.6425 62.8779 28.1439 70.3578 25.0338C71.4878 24.5637 72.4327 25.7587 71.3278 26.5619Z" fill="#BDBDC7"/>
<path d="M74.1033 23.4519C73.2533 22.3842 68.4634 22.9474 66.3134 23.1972C65.6584 23.2756 65.5584 22.7172 66.1484 22.3156C69.9633 19.6856 76.2232 20.4447 76.9532 21.3263C77.6832 22.2128 76.7632 28.3593 73.1783 31.293C72.6283 31.7436 72.1033 31.5036 72.3483 30.9061C73.1533 28.9373 74.9582 24.5245 74.1033 23.4519Z" fill="#BDBDC7"/>
<path d="M66.4628 3.7486V1.19202C66.4628 0.805107 66.7628 0.545532 67.1228 0.545532H78.8076C79.1826 0.545532 79.4826 0.810006 79.4826 1.19202V3.38127C79.4776 3.7486 79.1626 4.22856 78.6026 4.9877L72.5477 13.4557C74.7977 13.4019 77.1726 13.73 79.2126 14.8565C79.6726 15.1111 79.7976 15.4834 79.8326 15.8507V18.5787C79.8326 18.9509 79.4126 19.3868 78.9726 19.1615C75.3777 17.3151 70.6027 17.1143 66.6278 19.1811C66.2228 19.3966 65.7979 18.9656 65.7979 18.5934V16.0025C65.7979 15.5862 65.8028 14.8761 66.2278 14.2443L73.2427 4.39019H67.1378C66.7628 4.39019 66.4628 4.13062 66.4628 3.7486Z" fill="#BDBDC7"/>
<path d="M23.8393 19.7003H20.2844C19.9444 19.6758 19.6744 19.426 19.6494 19.1076V1.23612C19.6494 0.878593 19.9544 0.594527 20.3344 0.594527H23.6493C23.9943 0.60921 24.2693 0.868795 24.2943 1.19204V3.52822H24.3593C25.2243 1.2704 26.8493 0.217407 29.0392 0.217407C31.2642 0.217407 32.6541 1.2704 33.6541 3.52822C34.5141 1.2704 36.4691 0.217407 38.564 0.217407C40.054 0.217407 41.684 0.819818 42.6789 2.17157C43.8039 3.67515 43.5739 5.8595 43.5739 7.77449L43.5689 19.0538C43.5689 19.4113 43.2639 19.7003 42.8839 19.7003H39.334C38.979 19.6758 38.694 19.3966 38.694 19.0538V9.58172C38.694 8.82748 38.764 6.94678 38.594 6.23172C38.329 5.0318 37.534 4.69386 36.5041 4.69386C35.6441 4.69386 34.7441 5.25709 34.3791 6.15826C34.0141 7.05943 34.0491 8.5679 34.0491 9.58172V19.0538C34.0491 19.4113 33.7441 19.7003 33.3641 19.7003H29.8142C29.4542 19.6758 29.1742 19.3966 29.1742 19.0538L29.1692 9.58172C29.1692 7.58838 29.5042 4.65468 26.9793 4.65468C24.4243 4.65468 24.5243 7.51491 24.5243 9.58172V19.0538C24.5243 19.4113 24.2193 19.7003 23.8393 19.7003Z" fill="#BDBDC7"/>
<path d="M89.5428 0.217407C94.8177 0.217407 97.6726 4.65468 97.6726 10.2968C97.6726 15.7479 94.5177 20.0725 89.5428 20.0725C84.3629 20.0725 81.543 15.6352 81.543 10.1058C81.543 4.54203 84.3979 0.217407 89.5428 0.217407ZM89.5728 3.86616C86.9529 3.86616 86.7879 7.36308 86.7879 9.54254C86.7879 11.7269 86.7529 16.3895 89.5428 16.3895C92.2978 16.3895 92.4277 12.6281 92.4277 10.336C92.4277 8.82748 92.3627 7.02515 91.8978 5.59503C91.4978 4.35103 90.7028 3.86616 89.5728 3.86616Z" fill="#BDBDC7"/>
<path d="M104.512 19.7003H100.972C100.617 19.6758 100.332 19.3966 100.332 19.0538L100.327 1.17735C100.357 0.849204 100.652 0.594527 101.012 0.594527H104.307C104.617 0.60921 104.872 0.814922 104.942 1.09409V3.82698H105.007C106.002 1.38305 107.397 0.217407 109.852 0.217407C111.447 0.217407 113.002 0.780638 114.002 2.3234C114.932 3.75351 114.932 6.15826 114.932 7.88713V19.137C114.892 19.4505 114.597 19.7003 114.247 19.7003H110.682C110.357 19.6758 110.087 19.4407 110.052 19.137V9.42989C110.052 7.47573 110.282 4.6155 107.827 4.6155C106.962 4.6155 106.167 5.18363 105.772 6.04561C105.272 7.13779 105.207 8.22507 105.207 9.42989V19.0538C105.202 19.4113 104.892 19.7003 104.512 19.7003Z" fill="#BDBDC7"/>
<path d="M57.1486 11.1637V10.4095C54.5787 10.4095 51.8637 10.9482 51.8637 13.9162C51.8637 15.4198 52.6587 16.4385 54.0237 16.4385C55.0237 16.4385 55.9186 15.8361 56.4836 14.8565C57.1836 13.6517 57.1486 12.5203 57.1486 11.1637ZM60.7335 19.6513C60.4985 19.857 60.1585 19.8717 59.8935 19.7346C58.7136 18.7746 58.5036 18.329 57.8536 17.4131C55.9036 19.3624 54.5237 19.9452 51.9937 19.9452C49.0038 19.9452 46.6738 18.1379 46.6738 14.5186C46.6738 11.6926 48.2388 9.76786 50.4637 8.82751C52.3937 7.99491 55.0887 7.84798 57.1486 7.61779V7.16721C57.1486 6.3395 57.2136 5.35997 56.7186 4.64492C56.2836 4.00332 55.4536 3.73885 54.7237 3.73885C53.3687 3.73885 52.1587 4.41962 51.8637 5.83015C51.8037 6.1436 51.5687 6.45215 51.2487 6.46684L47.7988 6.10442C47.5088 6.04075 47.1888 5.81056 47.2688 5.37467C48.0638 1.28023 51.8387 0.0460205 55.2187 0.0460205C56.9486 0.0460205 59.2086 0.496605 60.5735 1.77979C62.3035 3.36173 62.1385 5.47262 62.1385 7.76962V13.1962C62.1385 14.8271 62.8285 15.5422 63.4785 16.4238C63.7085 16.7372 63.7585 17.1143 63.4685 17.3494C62.7435 17.942 61.4535 19.044 60.7435 19.6611L60.7335 19.6513" fill="#BDBDC7"/>
<path d="M10.5441 11.1637V10.4095C7.97417 10.4095 5.25923 10.9482 5.25923 13.9162C5.25923 15.4198 6.05421 16.4385 7.41918 16.4385C8.41916 16.4385 9.31414 15.8361 9.87913 14.8565C10.5791 13.6517 10.5441 12.5203 10.5441 11.1637ZM14.129 19.6513C13.894 19.857 13.5541 19.8717 13.2891 19.7346C12.1091 18.7746 11.8991 18.329 11.2491 17.4131C9.29914 19.3624 7.91917 19.9452 5.38922 19.9452C2.39928 19.9452 0.0693359 18.1379 0.0693359 14.5186C0.0693359 11.6926 1.6343 9.76786 3.85926 8.82751C5.78922 7.99491 8.48416 7.84798 10.5441 7.61779V7.16721C10.5441 6.3395 10.6091 5.35997 10.1141 4.64492C9.67913 4.00332 8.84915 3.73885 8.11917 3.73885C6.7642 3.73885 5.55422 4.41962 5.25923 5.83015C5.19923 6.1436 4.96423 6.45215 4.64424 6.46684L1.19431 6.10442C0.904318 6.04075 0.584324 5.81056 0.664323 5.37467C1.45931 1.28023 5.23423 0.0460205 8.61416 0.0460205C10.3441 0.0460205 12.6041 0.496605 13.969 1.77979C15.699 3.36173 15.534 5.47262 15.534 7.76962V13.1962C15.534 14.8271 16.224 15.5422 16.874 16.4238C17.104 16.7372 17.154 17.1143 16.864 17.3494C16.139 17.942 14.849 19.044 14.139 19.6611L14.129 19.6513" fill="#BDBDC7"/>
</g>
<defs>
<clipPath id="clip0_1358_8134">
<rect width="115" height="34" fill="white"/>
</clipPath>
</defs>
</svg>
