<svg width="101" height="34" viewBox="0 0 101 34" fill="none" xmlns="http://www.w3.org/2000/svg">
<g clip-path="url(#clip0_1360_8157)">
<path d="M23.4925 18.0664C23.4508 13.7641 27.0641 11.697 27.2266 11.5986C25.1928 8.67433 22.0339 8.2724 20.9086 8.22728C18.2206 7.95659 15.6617 9.78579 14.2948 9.78579C12.9278 9.78579 10.8232 8.26419 8.59358 8.30931C5.65965 8.35032 2.95492 9.98675 1.44211 12.5706C-1.60019 17.7629 0.666949 25.4734 3.6384 29.6936C5.09286 31.7566 6.81822 34.082 9.09369 33.9959C11.2858 33.9098 12.111 32.6015 14.7532 32.6015C17.3954 32.6015 18.1414 33.9959 20.4544 33.9549C22.809 33.9098 24.301 31.8468 25.743 29.7757C27.4016 27.3764 28.0893 25.0591 28.1309 24.9361C28.0768 24.9156 23.5425 23.2053 23.4925 18.0664Z" fill="#BDBDC7"/>
<path d="M19.1454 5.43016C20.354 3.99059 21.1667 1.99324 20.9458 0C19.2079 0.0697226 17.1033 1.14017 15.8572 2.57973C14.7403 3.85115 13.761 5.8854 14.0277 7.83764C15.9572 7.98528 17.941 6.86562 19.1454 5.43016ZM38.7328 22.2948L36.7324 28.2622H34.161L40.7082 9.29771H43.7088L50.281 28.2622H47.6221L45.5634 22.2948H38.7328ZM45.0507 20.3795L43.167 14.9206C42.7378 13.682 42.4544 12.5583 42.1668 11.4591H42.1126C41.8251 12.5829 41.5125 13.7353 41.1416 14.8919L39.2579 20.3754L45.0507 20.3795ZM52.2314 19.0876C52.2314 17.3445 52.1772 15.9337 52.1147 14.6417H54.3735L54.4902 16.9795H54.5444C55.5737 15.3185 57.2033 14.3341 59.4621 14.3341C62.8086 14.3341 65.3216 17.1189 65.3216 21.2572C65.3216 26.1542 62.2918 28.5698 59.0328 28.5698C57.2033 28.5698 55.6029 27.7824 54.7736 26.4331H54.7194V33.8318H52.2314V19.0876ZM54.7152 22.7172C54.7152 23.0864 54.7694 23.4186 54.8319 23.7303C55.2904 25.4446 56.8032 26.6299 58.6077 26.6299C61.2666 26.6299 62.8127 24.4931 62.8127 21.3679C62.8127 18.6364 61.3541 16.3069 58.6952 16.3069C56.9824 16.3069 55.382 17.5168 54.8903 19.3747C54.8028 19.6823 54.7194 20.0514 54.7194 20.3877L54.7152 22.7172ZM67.9221 19.0876C67.9221 17.3445 67.868 15.9337 67.8054 14.6417H70.0642L70.1809 16.9795H70.2351C71.2645 15.3185 72.894 14.3341 75.1528 14.3341C78.4993 14.3341 81.0123 17.1189 81.0123 21.2572C81.0123 26.1542 77.9825 28.5698 74.7235 28.5698C72.894 28.5698 71.2937 27.7824 70.4643 26.4331H70.4101V33.8318H67.9221V19.0876ZM70.4101 22.7172C70.4101 23.0864 70.4643 23.4186 70.5268 23.7303C70.9853 25.4446 72.4981 26.6299 74.3026 26.6299C76.9615 26.6299 78.5076 24.4931 78.5076 21.3679C78.5076 18.6364 77.049 16.3069 74.3901 16.3069C72.6773 16.3069 71.0769 17.5168 70.5852 19.3747C70.4977 19.6823 70.4143 20.0514 70.4143 20.3877L70.4101 22.7172ZM83.617 8.28468H86.1342V28.2581H83.617V8.28468ZM91.1936 21.9011C91.2478 25.2478 93.4232 26.6299 95.9362 26.6299C97.7366 26.6299 98.8243 26.3223 99.7662 25.9286L100.195 27.7004C99.3119 28.0941 97.795 28.5452 95.5945 28.5452C91.3353 28.5452 88.7889 25.7891 88.7889 21.6796C88.7889 17.5701 91.2478 14.3341 95.2778 14.3341C99.7954 14.3341 100.996 18.2427 100.996 20.7486C100.996 21.2572 100.941 21.6468 100.908 21.9011H91.1936ZM98.5701 20.1293C98.5993 18.5544 97.9116 16.1059 95.0819 16.1059C92.5355 16.1059 91.4228 18.415 91.2228 20.1293H98.5701Z" fill="#BDBDC7"/>
</g>
<defs>
<clipPath id="clip0_1360_8157">
<rect width="101" height="34" fill="white"/>
</clipPath>
</defs>
</svg>
