<svg width="101" height="35" viewBox="0 0 101 35" fill="none" xmlns="http://www.w3.org/2000/svg">
<path d="M24.258 18.5782C24.2167 14.228 27.7945 12.138 27.9555 12.0385C25.9417 9.0817 22.8137 8.6753 21.6995 8.62969C19.0378 8.35599 16.5041 10.2055 15.1505 10.2055C13.797 10.2055 11.7131 8.66701 9.50533 8.71262C6.60018 8.75409 3.922 10.4087 2.42404 13.0213C-0.588396 18.2713 1.65649 26.0675 4.59877 30.3347C6.03896 32.4206 7.74738 34.7719 10.0005 34.6848C12.1711 34.5977 12.9882 33.2749 15.6045 33.2749C18.2208 33.2749 18.9594 34.6848 21.2497 34.6433C23.5812 34.5977 25.0586 32.5118 26.4864 30.4176C28.1288 27.9917 28.8097 25.6487 28.8509 25.5243C28.7973 25.5035 24.3075 23.7743 24.258 18.5782Z" fill="black"/>
<path d="M19.9531 5.80156C21.1499 4.34599 21.9546 2.32644 21.7358 0.311035C20.015 0.381533 17.9311 1.46388 16.6972 2.91945C15.5913 4.205 14.6215 6.26187 14.8856 8.23581C16.7963 8.3851 18.7605 7.25299 19.9531 5.80156ZM39.3483 22.8537L37.3675 28.8875H34.8214L41.3043 9.71211H44.2755L50.7831 28.8875H48.1504L46.1118 22.8537H39.3483ZM45.6042 20.9171L43.739 15.3975C43.314 14.1452 43.0333 13.0089 42.7486 11.8975H42.695C42.4102 13.0338 42.1007 14.1991 41.7335 15.3685L39.8682 20.913L45.6042 20.9171ZM52.7144 19.6108C52.7144 17.8484 52.6608 16.4218 52.5989 15.1156H54.8355L54.951 17.4793H55.0047C56.024 15.7998 57.6375 14.8045 59.8741 14.8045C63.1878 14.8045 65.6761 17.6203 65.6761 21.8045C65.6761 26.756 62.6761 29.1985 59.4491 29.1985C57.6375 29.1985 56.0528 28.4023 55.2317 27.038H55.178V34.519H52.7144V19.6108ZM55.1739 23.2808C55.1739 23.6541 55.2275 23.99 55.2894 24.3051C55.7433 26.0385 57.2413 27.237 59.0281 27.237C61.6609 27.237 63.1919 25.0765 63.1919 21.9165C63.1919 19.1547 61.7476 16.7992 59.1148 16.7992C57.4188 16.7992 55.8341 18.0225 55.3472 19.9011C55.2605 20.2121 55.178 20.5853 55.178 20.9254L55.1739 23.2808ZM68.2512 19.6108C68.2512 17.8484 68.1975 16.4218 68.1356 15.1156H70.3722L70.4878 17.4793H70.5414C71.5607 15.7998 73.1742 14.8045 75.4108 14.8045C78.7245 14.8045 81.2129 17.6203 81.2129 21.8045C81.2129 26.756 78.2128 29.1985 74.9858 29.1985C73.1742 29.1985 71.5896 28.4023 70.7684 27.038H70.7147V34.519H68.2512V19.6108ZM70.7147 23.2808C70.7147 23.6541 70.7684 23.99 70.8303 24.3051C71.2842 26.0385 72.7822 27.237 74.569 27.237C77.2018 27.237 78.7328 25.0765 78.7328 21.9165C78.7328 19.1547 77.2885 16.7992 74.6557 16.7992C72.9596 16.7992 71.375 18.0225 70.8881 19.9011C70.8014 20.2121 70.7189 20.5853 70.7189 20.9254L70.7147 23.2808ZM83.792 8.68782H86.2845V28.8833H83.792V8.68782ZM91.2942 22.4556C91.3479 25.8395 93.502 27.237 95.9903 27.237C97.773 27.237 98.8501 26.926 99.7827 26.5279L100.208 28.3194C99.3329 28.7175 97.8308 29.1736 95.6519 29.1736C91.4345 29.1736 88.9132 26.3869 88.9132 22.2317C88.9132 18.0765 91.3479 14.8045 95.3383 14.8045C99.8116 14.8045 101 18.7566 101 21.2903C101 21.8045 100.946 22.1985 100.913 22.4556H91.2942ZM98.5983 20.6641C98.6272 19.0717 97.9463 16.596 95.1444 16.596C92.623 16.596 91.5212 18.9307 91.3231 20.6641H98.5983Z" fill="black"/>
</svg>
