<svg width="24" height="24" viewBox="0 0 24 24" fill="none" xmlns="http://www.w3.org/2000/svg">
<path d="M16.19 22H7.81C4.17 22 2 19.83 2 16.19V7.82C2 4.17 4.17 2 7.81 2H16.18C19.82 2 21.99 4.17 21.99 7.81V16.19C22 19.83 19.83 22 16.19 22ZM16.06 12.83L12.53 9.3C12.38 9.15 12.19 9.08 12 9.08C11.81 9.08 11.62 9.15 11.47 9.3L7.94 12.83C7.65 13.12 7.65 13.6 7.94 13.89C8.23 14.18 8.71 14.18 9 13.89L12 10.89L15 13.89C15.29 14.18 15.77 14.18 16.06 13.89C16.35 13.6 16.35 13.13 16.06 12.83Z" fill="#3D42DF"/>
</svg>
