<svg width="42" height="54" viewBox="0 0 42 54" fill="none" xmlns="http://www.w3.org/2000/svg">
<g clip-path="url(#clip0_181_1114)">
<path d="M31.8182 13H10.1818C4.55856 13 0 17.4856 0 23.0188V44.3087C0 49.8419 4.55856 54.3275 10.1818 54.3275H31.8182C37.4414 54.3275 42 49.8419 42 44.3087V23.0188C42 17.4856 37.4414 13 31.8182 13Z" fill="#3D42DF"/>
<path d="M10.2239 20.4382C10.7466 21.1721 11.3565 21.8418 12.0407 22.4332C14.2546 24.6511 17.9359 25.1258 17.7374 30.3687C17.6674 32.2172 15.6762 34.519 16.2381 36.2842C17.3009 39.6236 21.6472 41.5002 24.8634 40.0106C25.2499 39.8549 25.5893 39.6041 25.8491 39.2823C26.0815 38.9135 26.213 38.4918 26.2309 38.0581C26.5682 34.7313 24.8049 31.2178 26.11 28.1308C26.4645 27.2936 27.0245 26.5578 27.4553 25.7557C29.057 22.7757 28.756 19.1903 28.336 15.8446C28.182 14.6167 27.9892 13.3218 27.2008 12.3581C26.3391 11.3055 24.9353 10.8553 23.5913 10.5754C21.0872 10.0531 14.0153 8.87593 12.7095 11.7025C12.1469 12.9241 13.0226 14.4414 12.2679 15.7864C11.3133 17.4877 8.7564 18.0162 10.2194 20.437" fill="#FDDFA1"/>
<path d="M8.15209 44.1371C9.39746 41.6111 11.5134 39.36 14.2612 38.5961C14.9312 38.3637 15.6612 38.3597 16.3338 38.5848C16.8559 38.8741 17.3439 39.2191 17.7892 39.6136C19.4978 40.8096 21.8123 40.4508 23.8983 40.2128C25.8606 39.9893 27.8379 39.9206 29.8114 40.0075C30.4074 39.9868 30.9982 40.1242 31.5219 40.4051C32.0388 40.8133 32.4177 41.3661 32.6088 41.9905C33.9975 45.4366 34.6248 49.1341 34.4492 52.8371L14.3401 53.8252C12.0651 53.9367 7.70282 54.6455 6.48546 52.1026C5.46727 49.9736 7.22364 46.0369 8.15973 44.1371" fill="#FFBC00"/>
<path d="M14.0308 19.4714C14.0196 19.8063 14.1081 20.1371 14.2854 20.4232C14.506 20.6679 14.8007 20.8362 15.126 20.9035C16.1156 21.1388 17.1344 21.2335 18.1513 21.1847C18.3249 21.2062 18.5012 21.194 18.67 21.1485C18.8388 21.1031 18.9968 21.0253 19.1351 20.9198C19.2385 20.7778 19.3122 20.617 19.3517 20.4467C19.3913 20.2764 19.396 20.1 19.3655 19.9279C19.3354 19.26 19.3052 18.5921 19.2751 17.9242C19.2864 17.7158 19.2341 17.5088 19.1249 17.3299C19.0012 17.2166 18.8522 17.1334 18.6898 17.0869C18.5275 17.0405 18.3563 17.0321 18.1901 17.0625C17.3628 17.0914 15.0936 16.7657 14.4273 17.2091C13.7375 17.6681 13.9863 18.7056 14.0334 19.4702" fill="white"/>
<path d="M23.1016 20.1258C23.0998 20.2833 23.1393 20.4385 23.2161 20.5766C23.3726 20.7506 23.5917 20.8579 23.8271 20.876C24.7638 21.0581 25.7155 21.1562 26.6703 21.169C26.8088 21.2035 26.9539 21.2023 27.0918 21.1656C27.2297 21.1288 27.3556 21.0578 27.4574 20.9592C27.5593 20.8607 27.6336 20.738 27.6733 20.603C27.713 20.468 27.7167 20.3252 27.684 20.1884C27.7006 19.518 27.67 18.8472 27.5924 18.1809C27.6027 18.0988 27.5953 18.0154 27.5708 17.9363C27.5463 17.8571 27.5052 17.7839 27.4501 17.7214C27.3951 17.6588 27.3273 17.6083 27.2512 17.5732C27.1751 17.538 27.0923 17.5189 27.0082 17.5172C26.2357 17.3731 23.9715 16.8941 23.2982 17.4332C22.625 17.9724 23.0437 19.3838 23.1016 20.1258Z" fill="white"/>
<path d="M4.79297 52.199L6.18724 45.8903C6.87862 42.7572 8.75443 39.9997 11.4347 38.1765C11.5925 38.0676 11.7529 37.9642 11.9171 37.8634L12.0392 37.787L13.4227 36.9336L14.8361 36.0607L17.3363 34.5197L17.5909 31.9091L17.8874 28.8296V28.824" stroke="black" stroke-miterlimit="10"/>
<path d="M37.1367 52.1991L35.7443 45.8897C35.0964 42.9484 33.4017 40.3317 30.9659 38.5115C30.9493 38.5003 30.9353 38.4871 30.9188 38.4765C30.628 38.2579 30.3257 38.0538 30.0151 37.8628L28.9785 37.2247L28.122 36.6956L24.5959 34.519L24.1383 29.7864L24.0747 29.1427L24.0664 29.0557" stroke="black" stroke-miterlimit="10"/>
<path d="M29.8212 15.2234C29.1282 21.4094 27.6977 24.9917 26.215 27.0581C25.6487 27.8845 24.9213 28.592 24.0749 29.1395C23.317 29.6644 22.3957 29.9104 21.4721 29.8345C20.2014 29.8534 18.9534 29.5022 17.885 28.8251C17.2474 28.417 16.6732 27.9203 16.1802 27.3505C12.4517 23.0844 12.1074 14.827 12.1074 14.827" stroke="black" stroke-miterlimit="10"/>
<path d="M16.1648 35.2385C16.1648 35.2385 15.8708 40.9304 21.4644 40.9304C21.4644 40.9304 26.8035 40.5967 26.8035 35.8854" stroke="black" stroke-miterlimit="10"/>
<path d="M15.0273 35.941C15.0273 35.941 15.07 41.988 21.5513 41.988C21.5513 41.988 27.9023 41.2723 27.9023 36.561" stroke="black" stroke-miterlimit="10"/>
<path d="M14.8352 36.0594V52.1991H12.0352V37.7864L13.4186 36.933L14.8352 36.0594Z" fill="black"/>
<path d="M30.9172 38.4764V52.199H28.1172V36.6956L28.9737 37.2247L30.0104 37.8627C30.3209 38.0537 30.6232 38.2585 30.914 38.4764" fill="black"/>
<path d="M12.395 17.4132C12.395 17.4132 11.149 16.1321 9.9011 16.9843C8.65319 17.8365 9.94119 23.1001 13.5646 22.4714" stroke="black" stroke-miterlimit="10"/>
<path d="M10.7637 18.9241C10.9797 18.8473 11.2102 18.818 11.439 18.8382C11.6678 18.8584 11.8893 18.9276 12.088 19.041C12.2867 19.1544 12.4578 19.3091 12.5893 19.4945C12.7207 19.6798 12.8094 19.8912 12.849 20.1138" stroke="black" stroke-miterlimit="10"/>
<path d="M11.6562 20.2079C11.6562 20.2079 11.6868 19.2686 12.4097 19.2836" stroke="black" stroke-miterlimit="10"/>
<path d="M29.5927 17.4132C29.5927 17.4132 30.8247 16.1189 32.0816 16.9586C33.3384 17.7983 32.107 23.0745 28.4766 22.4827" stroke="black" stroke-miterlimit="10"/>
<path d="M31.2412 18.9066C31.0244 18.832 30.7936 18.8049 30.565 18.8274C30.3364 18.8498 30.1156 18.9212 29.9181 19.0366C29.7205 19.1519 29.551 19.3084 29.4214 19.495C29.2918 19.6817 29.2053 19.894 29.168 20.117" stroke="black" stroke-miterlimit="10"/>
<path d="M30.3632 20.1997C30.3632 20.1997 30.3232 19.2604 29.5996 19.283" stroke="black" stroke-miterlimit="10"/>
<path d="M27.5269 12.4101C27.5269 12.4101 22.8471 10.638 13.5657 12.6392C13.5657 12.6392 12.6965 15.829 13.077 16.9961C13.193 17.314 13.2112 17.6585 13.1291 17.9864C13.047 18.3143 12.8684 18.6111 12.6157 18.8396L11.8062 16.5635C11.0869 15.4483 10.7236 14.1467 10.7632 12.8265C10.7632 12.8265 6.27493 8.19277 11.8062 2.06879C16.0437 -2.62188 27.231 1.13078 28.8219 8.6361C28.8219 8.6361 33.2211 11.0425 29.464 17.8346C29.464 17.8346 28.7958 17.9291 28.8429 16.5635C28.8798 15.0745 28.4183 13.615 27.5295 12.4094" fill="black"/>
<path d="M15.3438 15.6223C16.3958 15.3637 17.4964 15.3637 18.5485 15.6223" stroke="black" stroke-width="2" stroke-miterlimit="10"/>
<path d="M17.442 18.906C17.442 19.3443 17.2142 19.7038 16.9329 19.7038C16.6516 19.7038 16.4238 19.3468 16.4238 18.906C16.4238 18.4652 16.6516 18.1089 16.9329 18.1089C17.2142 18.1089 17.442 18.4658 17.442 18.906Z" fill="black"/>
<path d="M26.8382 15.4138C25.8294 15.1228 24.7569 15.1228 23.748 15.4138" stroke="black" stroke-width="2" stroke-miterlimit="10"/>
<path d="M24.7402 18.906C24.7402 19.3443 24.968 19.7038 25.2493 19.7038C25.5306 19.7038 25.7584 19.3468 25.7584 18.906C25.7584 18.4652 25.5306 18.1089 25.2493 18.1089C24.968 18.1089 24.7402 18.4658 24.7402 18.906Z" fill="black"/>
<path d="M20.2135 18.2454C20.2732 19.4914 20.0812 20.7366 19.6484 21.9091C19.6484 21.9091 19.9666 22.5315 21.303 22.5628" stroke="black" stroke-miterlimit="10"/>
<path d="M20.0664 25.3637C20.9999 25.587 21.9798 25.5323 22.8817 25.2065" stroke="black" stroke-miterlimit="10"/>
<path d="M20.8633 25.943C21.1547 26.009 21.4584 26.0013 21.7459 25.9204" stroke="black" stroke-miterlimit="10"/>
<path d="M14.0727 3.94543C14.1091 4.33323 14.1699 4.71844 14.2547 5.09885C14.495 6.23452 14.9071 7.3283 15.4771 8.34368C15.8529 9.02071 16.3025 9.65544 16.818 10.2366C17.3375 10.8219 17.9068 11.3625 18.5196 11.8528C18.3541 11.7459 18.1895 11.6365 18.0258 11.5246C17.8581 11.4181 17.6971 11.3018 17.5434 11.1765C17.2332 10.9278 16.9393 10.6601 16.6633 10.375C16.1031 9.80736 15.624 9.16739 15.2391 8.47267C14.8461 7.78361 14.5465 7.04679 14.3482 6.28106C14.1381 5.52126 14.0438 4.73499 14.0682 3.94794" fill="white"/>
<path d="M17.6002 7.41626C17.7753 7.8469 17.9726 8.26844 18.1914 8.67925C18.4075 9.08578 18.6514 9.47741 18.9213 9.85145C19.1908 10.2227 19.4964 10.5673 19.8339 10.8803C20.18 11.1919 20.5591 11.466 20.9647 11.698C20.5047 11.5562 20.0746 11.3337 19.6952 11.0412C19.3167 10.7439 18.9818 10.3967 18.6999 10.0092C18.1392 9.23847 17.7631 8.35287 17.5996 7.41876" fill="white"/>
<path d="M13.819 8.44885C13.9759 8.81521 14.155 9.17194 14.3554 9.51711C14.553 9.85736 14.7762 10.1826 15.023 10.4902C15.2656 10.7995 15.5377 11.0853 15.8356 11.3437C16.1379 11.6059 16.46 11.8451 16.7991 12.0594C16.4055 11.9344 16.0351 11.7477 15.702 11.5065C15.5334 11.3866 15.3735 11.2555 15.2235 11.1139C15.077 10.9688 14.9387 10.816 14.8092 10.6561C14.2895 10.0179 13.948 9.2573 13.8184 8.44948" fill="white"/>
<path d="M16.0429 6.1972C15.7647 5.75121 15.5506 5.2695 15.4066 4.76577C15.2546 4.26295 15.1567 3.74582 15.1145 3.22288C15.0698 2.70006 15.0815 2.17406 15.1495 1.65368C15.2135 1.13436 15.3373 0.623887 15.5186 0.13208C15.4505 0.648048 15.3817 1.1565 15.3633 1.66871C15.3358 2.17921 15.3441 2.69096 15.3881 3.20033C15.4278 3.7093 15.5031 4.21498 15.6134 4.7138C15.7198 5.21765 15.8634 5.71322 16.0429 6.19658" fill="white"/>
<path d="M11.5035 6.04056C11.2684 5.89087 11.0953 5.66348 11.0154 5.39936C10.9262 5.14481 10.8704 4.88009 10.8493 4.61163C10.8086 4.08267 10.8609 3.55076 11.004 3.03931C11.0428 3.30355 11.0549 3.56341 11.0708 3.8214L11.1204 4.59034C11.139 4.8424 11.1717 5.09325 11.2184 5.34175C11.2589 5.59281 11.3563 5.83167 11.5035 6.04056Z" fill="white"/>
<path d="M12.2609 3.60162C12.1636 3.47082 12.0921 3.3232 12.0502 3.16643C12.0059 3.01358 11.9777 2.85662 11.9662 2.69805C11.9392 2.37838 11.9878 2.0569 12.1082 1.75879C12.1495 1.91117 12.1784 2.06653 12.1947 2.22341C12.2151 2.3762 12.2246 2.5271 12.238 2.67739C12.2564 2.98045 12.2692 3.27601 12.2615 3.59911" fill="white"/>
<path d="M14.1836 16.8978V19.6693C14.1836 19.9992 14.3166 20.3156 14.5534 20.5491C14.7902 20.7826 15.1115 20.9141 15.4468 20.9147H18.1831C18.3494 20.9148 18.5141 20.8827 18.6677 20.8201C18.8213 20.7576 18.961 20.6658 19.0786 20.5502C19.1962 20.4345 19.2894 20.2972 19.3531 20.146C19.4167 19.9949 19.4495 19.8329 19.4495 19.6693V16.8978H14.1836Z" stroke="black" stroke-miterlimit="10"/>
<path d="M27.3734 16.8978V19.6693C27.3734 19.9996 27.24 20.3164 27.0027 20.5499C26.7653 20.7835 26.4433 20.9147 26.1076 20.9147H23.3757C23.2095 20.9148 23.0448 20.8827 22.8912 20.8201C22.7375 20.7576 22.5979 20.6658 22.4803 20.5502C22.3627 20.4345 22.2694 20.2972 22.2058 20.146C22.1421 19.9949 22.1094 19.8329 22.1094 19.6693V16.8978H27.3734Z" stroke="black" stroke-miterlimit="10"/>
<path d="M19.4473 17.7363C19.4473 17.7363 20.9924 16.8597 22.1085 17.7363" stroke="black" stroke-miterlimit="10"/>
<path d="M24.1354 29.7864C22.1627 30.4408 19.2596 31.3738 17.5879 31.9085L17.8857 28.829C18.9541 29.5056 20.2018 29.8565 21.4723 29.8377C22.3958 29.9136 23.3171 29.6676 24.075 29.1427L24.1354 29.7864Z" fill="black"/>
</g>
<defs>
<clipPath id="clip0_181_1114">
<rect width="42" height="54" fill="white"/>
</clipPath>
</defs>
</svg>
