<svg width="24" height="24" viewBox="0 0 24 24" fill="none" xmlns="http://www.w3.org/2000/svg">
<path d="M17.6005 5.31003L11.9505 2.27003C11.3505 1.95003 10.6405 1.95003 10.0405 2.27003L4.40047 5.31003C3.99047 5.54003 3.73047 5.98003 3.73047 6.46003C3.73047 6.95003 3.98047 7.39003 4.40047 7.61003L10.0505 10.65C10.3505 10.81 10.6805 10.89 11.0005 10.89C11.3205 10.89 11.6605 10.81 11.9505 10.65L17.6005 7.61003C18.0105 7.39003 18.2705 6.95003 18.2705 6.46003C18.2705 5.98003 18.0105 5.54003 17.6005 5.31003Z" fill="#3D42DF"/>
<path d="M9.12 11.7101L3.87 9.09009C3.46 8.88009 3 8.91009 2.61 9.14009C2.23 9.38009 2 9.79009 2 10.2401V15.2001C2 16.0601 2.48 16.8301 3.25 17.2201L8.5 19.8401C8.68 19.9301 8.88 19.9801 9.08 19.9801C9.31 19.9801 9.55 19.9101 9.76 19.7901C10.14 19.5501 10.37 19.1401 10.37 18.6901V13.7301C10.36 12.8701 9.88 12.1001 9.12 11.7101Z" fill="#3D42DF"/>
<path d="M19.9996 10.2401V12.7001C19.5196 12.5601 19.0096 12.5001 18.4996 12.5001C17.1396 12.5001 15.8096 12.9701 14.7596 13.8101C13.3196 14.9401 12.4996 16.6501 12.4996 18.5001C12.4996 18.9901 12.5596 19.4801 12.6896 19.9501C12.5396 19.9301 12.3896 19.8701 12.2496 19.7801C11.8696 19.5501 11.6396 19.1401 11.6396 18.6901V13.7301C11.6396 12.8701 12.1196 12.1001 12.8796 11.7101L18.1296 9.09009C18.5396 8.88009 18.9996 8.91009 19.3896 9.14009C19.7696 9.38009 19.9996 9.79009 19.9996 10.2401Z" fill="#3D42DF"/>
<path d="M22.58 21.5L21.74 20.66C22.18 20 22.44 19.2 22.44 18.35C22.44 16.02 20.55 14.13 18.22 14.13C15.89 14.13 14 16.02 14 18.35C14 20.68 15.89 22.57 18.22 22.57C19.07 22.57 19.87 22.31 20.53 21.87L21.37 22.71C21.54 22.88 21.75 22.96 21.97 22.96C22.19 22.96 22.41 22.88 22.57 22.71C22.91 22.37 22.91 21.83 22.58 21.5Z" fill="#3D42DF"/>
</svg>
