<svg width="14" height="14" viewBox="0 0 14 14" fill="none" xmlns="http://www.w3.org/2000/svg">
<path d="M3.14909 1.2251H10.8491C11.4908 1.2251 12.0158 1.7501 12.0158 2.39176V3.6751C12.0158 4.14176 11.7241 4.7251 11.4324 5.01676L8.92409 7.23343C8.57409 7.5251 8.34075 8.10843 8.34075 8.5751V11.0834C8.34075 11.4334 8.10742 11.9001 7.81576 12.0751L6.99909 12.6001C6.24076 13.0668 5.19075 12.5418 5.19075 11.6084V8.51676C5.19075 8.10843 4.95742 7.58343 4.72409 7.29176L2.50742 4.95843C2.21576 4.66676 1.98242 4.14176 1.98242 3.79176V2.4501C1.98242 1.7501 2.50742 1.2251 3.14909 1.2251Z" stroke="#808191" stroke-width="1.5" stroke-miterlimit="10" stroke-linecap="round" stroke-linejoin="round"/>
<path d="M6.37583 1.2251L3.5 5.83343" stroke="#808191" stroke-width="1.5" stroke-miterlimit="10" stroke-linecap="round" stroke-linejoin="round"/>
</svg>
