<svg width="24" height="24" viewBox="0 0 24 24" fill="none" xmlns="http://www.w3.org/2000/svg">
<g clip-path="url(#clip0_275_18499)">
<path d="M13.3002 17.53C13.284 17.0166 13.0775 16.5276 12.7208 16.1579C12.3641 15.7883 11.8827 15.5645 11.3702 15.53C11.3521 15.0118 11.1334 14.5209 10.7603 14.1608C10.3871 13.8007 9.88876 13.5997 9.37024 13.6C9.37024 13.51 9.37024 13.41 9.37024 13.32C9.33441 13.0534 9.24175 12.7977 9.09863 12.57C8.95551 12.3423 8.76529 12.148 8.54065 12.0001C8.316 11.8522 8.06224 11.7543 7.7965 11.7129C7.53077 11.6714 7.25923 11.6875 7.00024 11.76C6.78197 11.8539 6.58221 11.986 6.41027 12.15C5.87027 12.67 5.34019 13.15 4.82019 13.75C4.64092 13.9717 4.47721 14.2056 4.3302 14.45C3.59617 13.7562 2.90179 13.0217 2.25024 12.25C1.60105 11.3936 1.18174 10.3855 1.0321 9.32131C0.882462 8.25718 1.00742 7.17249 1.39526 6.17031C1.7831 5.16814 2.42091 4.28178 3.24792 3.59561C4.07493 2.90943 5.0637 2.4462 6.12024 2.24996C7.01123 2.07454 7.93003 2.09932 8.8103 2.32241C9.69057 2.54551 10.5103 2.96139 11.2102 3.54C11.2802 3.54 11.3402 3.65996 11.4502 3.74996C11.1202 4.05996 10.8103 4.35 10.5103 4.66L7.10022 8.07998C6.93901 8.19753 6.80991 8.35373 6.72485 8.5342C6.63979 8.71468 6.60157 8.91366 6.61352 9.11282C6.62547 9.31197 6.68731 9.50491 6.79333 9.67391C6.89936 9.84292 7.0461 9.98255 7.22021 10.08C7.67372 10.4381 8.24412 10.6149 8.82067 10.5761C9.39723 10.5373 9.93878 10.2856 10.3402 9.86996L13.2302 6.95999C13.5602 6.61999 13.7102 6.61999 14.0502 6.95999L19.9103 12.84C20.0176 12.9168 20.105 13.0181 20.1654 13.1355C20.2258 13.2529 20.2572 13.383 20.2572 13.515C20.2572 13.647 20.2258 13.7771 20.1654 13.8945C20.105 14.0119 20.0176 14.1132 19.9103 14.19C19.6403 14.47 19.3503 14.69 18.9103 14.54C18.7582 14.4715 18.6194 14.3767 18.5002 14.26L14.2603 10.01C14.1625 9.90414 14.0323 9.83378 13.8903 9.80996C13.8247 9.81063 13.7603 9.8274 13.7028 9.85879C13.6452 9.89018 13.5962 9.93527 13.5602 9.99002C13.5254 10.1211 13.5254 10.2589 13.5602 10.39C13.5602 10.46 13.6602 10.51 13.7202 10.56C15.1202 11.98 16.5268 13.3933 17.9402 14.8C18.2702 15.14 18.3702 15.45 18.2002 15.8C18.0302 16.15 17.5702 16.64 17.1302 16.53C16.9174 16.4757 16.7214 16.3691 16.5602 16.22C15.1468 14.82 13.7435 13.4133 12.3502 12L12.2002 11.86C12.1649 11.8243 12.1229 11.796 12.0765 11.7766C12.0302 11.7573 11.9804 11.7474 11.9302 11.7474C11.88 11.7474 11.8303 11.7573 11.7839 11.7766C11.7376 11.796 11.6956 11.8243 11.6603 11.86C11.5928 11.9337 11.5553 12.03 11.5553 12.13C11.5553 12.2299 11.5928 12.3262 11.6603 12.4L12.0303 12.78L16.0303 16.78C16.1417 16.8573 16.2327 16.9605 16.2955 17.0807C16.3584 17.2008 16.3911 17.3344 16.3911 17.47C16.3911 17.6056 16.3584 17.7392 16.2955 17.8593C16.2327 17.9795 16.1417 18.0827 16.0303 18.16C15.9313 18.3079 15.7877 18.4205 15.6206 18.4816C15.4535 18.5427 15.2713 18.5491 15.1002 18.5C14.957 18.4498 14.827 18.3678 14.7202 18.26C14.5562 18.0367 14.3425 17.8545 14.0961 17.7279C13.8497 17.6012 13.5772 17.5335 13.3002 17.53V17.53Z" fill="#3D42DF"/>
<path d="M21.0096 13.1C20.8887 12.7353 20.6709 12.4104 20.3796 12.16L14.6296 6.38994C14.5154 6.24622 14.3702 6.13012 14.2048 6.05034C14.0395 5.97055 13.8581 5.92912 13.6745 5.92912C13.491 5.92912 13.3098 5.97055 13.1444 6.05034C12.979 6.13012 12.8338 6.24622 12.7196 6.38994L9.8496 9.26994C9.58569 9.55613 9.22543 9.7348 8.83788 9.77171C8.45033 9.80862 8.06281 9.70119 7.74962 9.46995C7.36962 9.19995 7.34955 8.97995 7.67955 8.64995C9.23955 7.07995 10.7896 5.49993 12.3696 3.94993C13.0179 3.30112 13.804 2.80681 14.6697 2.50383C15.5353 2.20084 16.4583 2.09698 17.3696 2.19993C18.7495 2.33603 20.0451 2.92641 21.0532 3.8784C22.0613 4.83039 22.7248 6.09012 22.9396 7.45994C23.1106 8.44678 23.0409 9.46033 22.7362 10.4144C22.4315 11.3685 21.9009 12.2349 21.1896 12.9399C21.1896 12.9399 21.0696 13.04 21.0096 13.1Z" fill="#3D42DF"/>
<path d="M9.48987 14.34C9.70687 14.3941 9.90909 14.4957 10.082 14.6375C10.255 14.7793 10.3943 14.9578 10.4899 15.16C10.557 15.3249 10.5679 15.5073 10.5209 15.679C10.4739 15.8507 10.3716 16.0022 10.2299 16.11C9.71986 16.61 9.22985 17.1099 8.71985 17.6299C8.64491 17.7237 8.54984 17.7995 8.44165 17.8515C8.33346 17.9035 8.21491 17.9306 8.09485 17.9306C7.97479 17.9306 7.85624 17.9035 7.74805 17.8515C7.63985 17.7995 7.54479 17.7237 7.46985 17.6299L7.22986 17.3799C7.09051 17.2347 7.0127 17.0412 7.0127 16.84C7.0127 16.6387 7.09051 16.4452 7.22986 16.3C7.78986 15.73 8.34981 15.16 8.92981 14.61C9.10039 14.4898 9.28964 14.3986 9.48987 14.34Z" fill="#3D42DF"/>
<path d="M6.23012 15.96C6.01153 15.9319 5.80416 15.8469 5.62868 15.7135C5.45321 15.5801 5.31578 15.4031 5.23012 15.2C5.05012 14.88 5.15012 14.56 5.48012 14.2L6.99013 12.68C7.06408 12.5863 7.15827 12.5107 7.26565 12.4587C7.37303 12.4067 7.49081 12.3796 7.61013 12.3796C7.72945 12.3796 7.84723 12.4067 7.95461 12.4587C8.06199 12.5107 8.15618 12.5863 8.23012 12.68C8.78012 13.23 8.78012 13.61 8.23012 14.16L6.76015 15.63C6.69975 15.719 6.62133 15.7943 6.53005 15.8511C6.43877 15.908 6.33661 15.9451 6.23012 15.96Z" fill="#3D42DF"/>
<path d="M14.5096 19.39C14.4338 19.5824 14.3329 19.7639 14.2096 19.9299C13.6796 20.4899 13.1296 21.04 12.5796 21.58C12.5065 21.6597 12.4177 21.7234 12.3187 21.7669C12.2197 21.8105 12.1128 21.8329 12.0046 21.8329C11.8965 21.8329 11.7895 21.8105 11.6906 21.7669C11.5916 21.7234 11.5026 21.6597 11.4296 21.58L11.1896 21.33C11.1112 21.2561 11.0488 21.167 11.0061 21.0681C10.9634 20.9692 10.9414 20.8626 10.9414 20.7549C10.9414 20.6472 10.9634 20.5407 11.0061 20.4418C11.0488 20.343 11.1112 20.2538 11.1896 20.1799C11.7296 19.6299 12.2796 19.08 12.8296 18.54C12.9027 18.4603 12.9916 18.3966 13.0906 18.353C13.1896 18.3095 13.2965 18.287 13.4047 18.287C13.5128 18.287 13.6198 18.3095 13.7188 18.353C13.8177 18.3966 13.9065 18.4603 13.9796 18.54C14.3696 18.92 14.4596 19.06 14.4596 19.36L14.5096 19.39Z" fill="#3D42DF"/>
<path d="M12.5702 17.4299C12.5012 17.6184 12.4071 17.7968 12.2903 17.96C11.7403 18.53 11.1802 19.09 10.6202 19.64C10.4741 19.7853 10.2763 19.8669 10.0702 19.8669C9.86408 19.8669 9.66641 19.7853 9.52026 19.64C9.4187 19.5483 9.32187 19.4515 9.23022 19.35C9.15523 19.2773 9.09565 19.1902 9.05493 19.094C9.01421 18.9978 8.99316 18.8944 8.99316 18.79C8.99316 18.6855 9.01421 18.5821 9.05493 18.4859C9.09565 18.3897 9.15523 18.3027 9.23022 18.23C9.77022 17.67 10.3202 17.12 10.8702 16.58C10.9433 16.5002 11.0321 16.4366 11.1311 16.3931C11.2301 16.3495 11.337 16.327 11.4452 16.327C11.5533 16.327 11.6603 16.3495 11.7593 16.3931C11.8583 16.4366 11.9472 16.5002 12.0203 16.58C12.1657 16.6759 12.2897 16.801 12.3844 16.9473C12.4791 17.0936 12.5423 17.2579 12.5702 17.4299V17.4299Z" fill="#3D42DF"/>
</g>
<defs>
<clipPath id="clip0_275_18499">
<rect width="24" height="24" fill="white"/>
</clipPath>
</defs>
</svg>
