<svg width="128" height="30" viewBox="0 0 128 30" fill="none" xmlns="http://www.w3.org/2000/svg">
<path fill-rule="evenodd" clip-rule="evenodd" d="M0.798362 0.460031C0.463167 0.822484 0.270508 1.38035 0.270508 2.10525V27.8899C0.270508 28.6148 0.463167 29.1726 0.810892 29.5225L0.90174 29.5997L15.2619 15.152V14.8274L0.889209 0.382812L0.798362 0.460031Z" fill="url(#paint0_linear_1407_8926)"/>
<path fill-rule="evenodd" clip-rule="evenodd" d="M20.0389 19.9868L15.249 15.1662V14.8289L20.0404 10.0083L20.1438 10.0729L25.8108 13.3129C27.4335 14.2332 27.4335 15.7492 25.8108 16.6822L20.1438 19.9222C20.1422 19.9222 20.0389 19.9868 20.0389 19.9868Z" fill="url(#paint1_linear_1407_8926)"/>
<path fill-rule="evenodd" clip-rule="evenodd" d="M20.1421 19.9222L15.2488 14.9976L0.797852 29.5367C1.32571 30.1071 2.21382 30.1717 3.20687 29.6139L20.1421 19.9222Z" fill="url(#paint2_linear_1407_8926)"/>
<path fill-rule="evenodd" clip-rule="evenodd" d="M20.1421 10.0744L3.20687 0.395347C2.21538 -0.175122 1.32571 -0.0979041 0.797852 0.472566L15.2473 14.9975L20.1421 10.0744Z" fill="url(#paint3_linear_1407_8926)"/>
<path opacity="0.2" fill-rule="evenodd" clip-rule="evenodd" d="M20.0398 19.8181L3.22054 29.4326C2.28074 29.9763 1.44276 29.9384 0.902371 29.4452L0.811523 29.5366L0.902371 29.6138C1.44276 30.1055 2.28074 30.1449 3.22054 29.6012L20.1557 19.9221L20.0398 19.8181Z" fill="black"/>
<path opacity="0.12" fill-rule="evenodd" clip-rule="evenodd" d="M25.8093 16.5136L20.0264 19.8182L20.1297 19.9222L25.7967 16.6822C26.6081 16.2157 27.0075 15.6074 27.0075 14.9976C26.9558 15.5554 26.5439 16.0865 25.8093 16.5136Z" fill="black"/>
<path opacity="0.25" fill-rule="evenodd" clip-rule="evenodd" d="M3.20738 0.564036L25.8096 13.4831C26.5442 13.8976 26.9561 14.4413 27.0203 14.9991C27.0203 14.3908 26.6209 13.781 25.8096 13.3145L3.20738 0.395416C1.58466 -0.537507 0.270508 0.239404 0.270508 2.10525V2.27387C0.270508 0.408023 1.58466 -0.35628 3.20738 0.564036Z" fill="white"/>
<path fill-rule="evenodd" clip-rule="evenodd" d="M32.5373 14.1796C32.5373 10.0492 35.9879 6.68628 40.0933 6.68628C42.3629 6.68628 43.9778 7.58296 45.1964 8.75069L43.7617 10.1942C42.8908 9.37158 41.7098 8.73335 40.0917 8.73335C37.0938 8.73335 34.7505 11.1618 34.7505 14.178C34.7505 17.1943 37.0938 19.6259 40.0902 19.6259C42.034 19.6259 43.1398 18.8411 43.8494 18.1256C44.4305 17.541 44.8111 16.701 44.9583 15.549H40.0933V13.5067H46.9413C47.0134 13.8723 47.0509 14.3104 47.0509 14.7847C47.0509 16.3181 46.6327 18.2202 45.2873 19.5739C43.9778 20.9449 42.3081 21.6761 40.0917 21.6761C35.9848 21.6761 32.5342 18.3163 32.5342 14.1828L32.5373 14.1796ZM52.5864 12.0238C49.9346 12.0238 47.7699 14.0535 47.7699 16.8476C47.7699 19.6274 49.933 21.6714 52.5864 21.6714C55.2397 21.6714 57.3997 19.6243 57.3997 16.846C57.3997 14.052 55.2382 12.0222 52.5864 12.0238ZM52.5864 19.774C51.1344 19.774 49.8797 18.5684 49.8797 16.8491C49.8797 15.1125 51.1328 13.9243 52.5864 13.9243C54.0384 13.9243 55.2914 15.1109 55.2914 16.8491C55.2914 18.5669 54.0399 19.774 52.5864 19.774ZM63.0886 12.0238C60.4368 12.0238 58.2753 14.0535 58.2753 16.8476C58.2753 19.6274 60.4368 21.6714 63.0886 21.6714C65.7404 21.6714 67.902 19.6243 67.902 16.846C67.902 14.052 65.742 12.0222 63.0886 12.0238ZM63.0886 19.774C61.6366 19.774 60.382 18.5684 60.382 16.8491C60.382 15.1125 61.6351 13.9243 63.0886 13.9243C64.5406 13.9243 65.7952 15.1109 65.7952 16.8491C65.7952 18.5669 64.5406 19.774 63.0886 19.774ZM75.978 12.3169V13.1017H75.9059C75.4345 12.5328 74.526 12.0222 73.3826 12.0222C70.9845 12.0222 68.7838 14.1434 68.7838 16.8681C68.7838 19.5707 70.9829 21.6745 73.3826 21.6745C74.526 21.6745 75.4345 21.1639 75.9059 20.5793H75.978V21.2727C75.978 23.118 74.9974 24.1061 73.417 24.1061C72.1264 24.1061 71.3275 23.1732 71.0002 22.39L69.1644 23.1574C69.6907 24.4354 71.091 26.0082 73.4155 26.0082C75.884 26.0082 77.9735 24.5442 77.9735 20.9811V12.3153L75.978 12.3169ZM73.5627 19.774C72.1107 19.774 70.8905 18.548 70.8905 16.8681C70.8905 15.1693 72.1091 13.9259 73.5627 13.9259C74.9975 13.9259 76.1236 15.1677 76.1236 16.8681C76.1252 18.548 74.999 19.774 73.5627 19.774ZM79.4286 7.19844H81.5369V21.3814H79.4286V7.19844ZM87.3151 19.774C86.2437 19.774 85.4793 19.2792 84.9922 18.3131L91.4048 15.642L91.1839 15.0936C90.7861 14.0173 89.5675 12.0238 87.0786 12.0238C84.6085 12.0238 82.555 13.9795 82.555 16.8491C82.555 19.5518 84.5897 21.6729 87.3151 21.6729C89.5142 21.6729 90.7861 20.3224 91.3124 19.5345L89.6771 18.4392C89.1305 19.2445 88.3849 19.7756 87.3151 19.774ZM87.1506 13.8881C87.9855 13.8881 88.6935 14.3088 88.93 14.9108L84.6414 16.7026C84.5881 14.8383 86.0777 13.8881 87.1506 13.8881Z" fill="#808285"/>
<path fill-rule="evenodd" clip-rule="evenodd" d="M100.656 7.19849H95.6152V21.3814H97.7188V16.0092H100.657C102.99 16.0092 105.283 14.3104 105.283 11.6031C105.283 8.90044 102.991 7.20006 100.66 7.20006L100.656 7.19849ZM100.711 14.0347H97.7188V9.17149H100.711C102.283 9.17149 103.179 10.4842 103.179 11.6031C103.179 12.703 102.283 14.0347 100.711 14.0347ZM108.545 21.3814V7.19849H106.442V21.3814H108.545ZM117.995 21.3562V15.9194C117.995 13.4012 116.125 11.9971 113.711 11.9971C112.19 11.9971 110.613 12.6731 109.96 14.1686L111.827 14.9518C112.226 14.1686 112.969 13.9117 113.75 13.9117C114.837 13.9117 115.943 14.5689 115.96 15.7382V15.8848C115.58 15.6657 114.765 15.3363 113.766 15.3363C111.753 15.3363 109.704 16.4489 109.704 18.5291C109.704 20.428 111.355 21.6493 113.205 21.6493C114.621 21.6493 115.4 21.0111 115.888 20.2641H115.96V21.3594H117.993L117.995 21.3562ZM113.46 19.7709C112.771 19.7709 111.81 19.4242 111.81 18.5685C111.81 17.4732 113.008 17.0509 114.042 17.0509C114.967 17.0509 115.401 17.251 115.965 17.5252C115.804 18.7986 114.734 19.7551 113.46 19.7709ZM125.393 12.3075L122.981 18.455H122.909L120.406 12.3075H118.139L121.892 20.9024L119.751 25.682H121.945L127.73 12.3075H125.393Z" fill="#808285"/>
<defs>
<linearGradient id="paint0_linear_1407_8926" x1="13.9724" y1="1.82809" x2="-9.0485" y2="7.92486" gradientUnits="userSpaceOnUse">
<stop stop-color="#00A0FF"/>
<stop offset="0.007" stop-color="#00A1FF"/>
<stop offset="0.26" stop-color="#00BEFF"/>
<stop offset="0.512" stop-color="#00D2FF"/>
<stop offset="0.76" stop-color="#00DFFF"/>
<stop offset="1" stop-color="#00E3FF"/>
</linearGradient>
<linearGradient id="paint1_linear_1407_8926" x1="27.9224" y1="14.9983" x2="-0.124199" y2="14.9983" gradientUnits="userSpaceOnUse">
<stop stop-color="#FFE000"/>
<stop offset="0.409" stop-color="#FFBD00"/>
<stop offset="0.775" stop-color="#FFA500"/>
<stop offset="1" stop-color="#FF9C00"/>
</linearGradient>
<linearGradient id="paint2_linear_1407_8926" x1="17.4813" y1="17.6766" x2="-1.15162" y2="48.8469" gradientUnits="userSpaceOnUse">
<stop stop-color="#FF3A44"/>
<stop offset="1" stop-color="#C31162"/>
</linearGradient>
<linearGradient id="paint3_linear_1407_8926" x1="-2.83982" y1="-8.11725" x2="5.47292" y2="5.80397" gradientUnits="userSpaceOnUse">
<stop stop-color="#32A071"/>
<stop offset="0.069" stop-color="#2DA771"/>
<stop offset="0.476" stop-color="#15CF74"/>
<stop offset="0.801" stop-color="#06E775"/>
<stop offset="1" stop-color="#00F076"/>
</linearGradient>
</defs>
</svg>
