<svg width="22" height="20" viewBox="0 0 22 20" fill="none" xmlns="http://www.w3.org/2000/svg">
<path d="M19.0402 4.82006L13.2802 0.79006C11.7102 -0.30994 9.30023 -0.24994 7.79023 0.92006L2.78023 4.83006C1.78023 5.61006 0.990234 7.21006 0.990234 8.47006V15.3701C0.990234 17.9201 3.06023 20.0001 5.61023 20.0001H16.3902C18.9402 20.0001 21.0102 17.9301 21.0102 15.3801V8.60006C21.0102 7.25006 20.1402 5.59006 19.0402 4.82006ZM11.7502 16.0001C11.7502 16.4101 11.4102 16.7501 11.0002 16.7501C10.5902 16.7501 10.2502 16.4101 10.2502 16.0001V13.0001C10.2502 12.5901 10.5902 12.2501 11.0002 12.2501C11.4102 12.2501 11.7502 12.5901 11.7502 13.0001V16.0001Z" fill="white"/>
</svg>
