<svg width="7" height="9" viewBox="0 0 7 9" fill="none" xmlns="http://www.w3.org/2000/svg">
<path d="M1.80617 4.5042C1.18142 4.71589 0.606137 4.91099 0.00376202 5.11499C0.00376202 4.88266 -0.00526967 4.67461 0.0104376 4.46858C0.0139718 4.42204 0.0976131 4.36334 0.155337 4.34311C0.612812 4.1812 1.07264 4.02739 1.53169 3.87034C1.83877 3.7651 1.84034 3.76227 1.77712 3.39798C1.19555 3.59713 0.615561 3.79587 0.00258397 4.00594C0.00258397 3.76672 -0.00644772 3.55989 0.00925957 3.35468C0.0127937 3.30732 0.0936863 3.2462 0.150625 3.22596C0.639122 3.05434 1.1288 2.88475 1.62201 2.7281C1.75827 2.68479 1.805 2.62286 1.80382 2.47472C1.79675 1.73279 1.80068 0.99086 1.80068 0.248524C1.80068 0.169191 1.80068 0.0894526 1.80068 0H2.74626V2.33346C3.72482 1.9967 4.66922 1.67167 5.63797 1.33855C5.63797 1.56603 5.64857 1.76841 5.6309 1.96755C5.62619 2.01977 5.54215 2.08696 5.48129 2.10841C4.67119 2.39417 3.85912 2.67346 3.04744 2.95356C2.72544 3.06446 2.72505 3.06365 2.77492 3.4421C3.72403 3.11586 4.66883 2.79084 5.63718 2.45772C5.63718 2.6852 5.64779 2.89365 5.62933 3.09927C5.62501 3.14865 5.53077 3.20815 5.46715 3.23041C4.63741 3.51941 3.80728 3.8068 2.97362 4.08284C2.81223 4.13627 2.749 4.2067 2.75018 4.39006C2.75882 5.53675 2.7545 6.68345 2.7545 7.83014C2.7545 7.90219 2.7545 7.97464 2.7545 8.04628C4.41987 8.0564 5.90578 6.46568 6.07149 4.50663H6.99547C7.11367 6.71299 4.90562 9.28931 1.80539 8.97359V4.5042H1.80617Z" fill="black"/>
</svg>
