<svg width="24" height="24" viewBox="0 0 24 24" fill="none" xmlns="http://www.w3.org/2000/svg">
<path d="M2 9.5H10.5" stroke="#3D42DF" stroke-width="1.5" stroke-miterlimit="10" stroke-linecap="round" stroke-linejoin="round"/>
<path d="M6 17.5H8" stroke="#3D42DF" stroke-width="1.5" stroke-miterlimit="10" stroke-linecap="round" stroke-linejoin="round"/>
<path d="M10.5 17.5H14.5" stroke="#3D42DF" stroke-width="1.5" stroke-miterlimit="10" stroke-linecap="round" stroke-linejoin="round"/>
<path d="M22 13.03V17.11C22 20.62 21.11 21.5 17.56 21.5H6.44C2.89 21.5 2 20.62 2 17.11V8.89C2 5.38 2.89 4.5 6.44 4.5H13.5" stroke="#3D42DF" stroke-width="1.5" stroke-linecap="round" stroke-linejoin="round"/>
<path d="M19 12C21.2091 12 23 10.2091 23 8C23 5.79086 21.2091 4 19 4C16.7909 4 15 5.79086 15 8C15 10.2091 16.7909 12 19 12Z" stroke="#3D42DF" stroke-width="1.5" stroke-miterlimit="10" stroke-linecap="round" stroke-linejoin="round"/>
<path d="M19.25 6.75V7.67999C19.25 8.02999 19.07 8.35998 18.76 8.53998L18 9" stroke="#3D42DF" stroke-width="1.5" stroke-miterlimit="10" stroke-linecap="round" stroke-linejoin="round"/>
</svg>
