<svg width="16" height="20" viewBox="0 0 16 20" fill="none" xmlns="http://www.w3.org/2000/svg">
<path d="M4.12647 10.0089C2.69844 10.4794 1.38351 10.9129 0.00664583 11.3663C0.00664583 10.85 -0.0139982 10.3876 0.0219044 9.92976C0.0299825 9.82631 0.221164 9.69588 0.353106 9.65091C1.39877 9.2911 2.44982 8.94928 3.49907 8.60027C4.20097 8.36639 4.20456 8.36009 4.06005 7.55052C2.73076 7.99309 1.40505 8.43475 0.00395314 8.90161C0.00395314 8.36999 -0.0166909 7.91033 0.0192117 7.45427C0.0272898 7.34903 0.212188 7.2132 0.342335 7.16822C1.45891 6.78683 2.57817 6.40993 3.70551 6.06181C4.01697 5.96556 4.12378 5.82793 4.12109 5.49871C4.10493 3.84988 4.1139 2.20106 4.1139 0.551331C4.1139 0.375024 4.1139 0.197818 4.1139 -0.000976562H6.27524V5.18477C8.51197 4.43637 10.6706 3.71405 12.8849 2.97375C12.8849 3.47928 12.9091 3.92904 12.8688 4.37161C12.858 4.48764 12.6659 4.63697 12.5268 4.68464C10.6751 5.3197 8.81894 5.94037 6.96367 6.56284C6.22767 6.80931 6.22677 6.80752 6.34076 7.64857C8.51018 6.92355 10.6697 6.20124 12.8831 5.46093C12.8831 5.96646 12.9074 6.42972 12.8652 6.88667C12.8553 6.99642 12.6399 7.12865 12.4945 7.17812C10.5979 7.82038 8.70046 8.45904 6.79493 9.07251C6.42603 9.19125 6.28152 9.34777 6.28422 9.75525C6.30396 12.3036 6.29409 14.852 6.29409 17.4003C6.29409 17.5604 6.29409 17.7214 6.29409 17.8806C10.1007 17.9031 13.4971 14.368 13.8758 10.0143H15.9878C16.258 14.9176 11.211 20.6431 4.12468 19.9415V10.0089H4.12647Z" fill="white"/>
</svg>
