<svg width="41" height="43" viewBox="0 0 41 43" fill="none" xmlns="http://www.w3.org/2000/svg">
<g clip-path="url(#clip0_1703_9185)">
<path d="M30.2862 15.41C30.2614 15.3511 30.2356 15.2931 30.2081 15.2355C30.1492 15.111 30.0844 14.9895 30.0135 14.8719C29.999 14.8478 29.9844 14.8239 29.9695 14.8001C29.8894 14.6729 29.8027 14.5508 29.7098 14.4329C29.628 14.3293 29.5417 14.2296 29.4507 14.1342C28.8987 13.5518 28.1806 13.1253 27.3718 12.927H27.4367C27.4367 11.1827 26.1213 9.74698 24.4293 9.55791L24.431 9.55659C15.8251 8.65927 13.4951 4.40844 12.5987 3.35384C12.6169 4.62333 12.7516 5.80176 12.9964 6.88947C11.9335 5.49449 11.2198 3.7035 10.8796 1.47676C9.90436 3.56112 9.42221 5.68223 9.43445 7.83943C8.76302 5.43092 9.02147 2.79724 9.953 0C5.44855 3.1118 1.71746 9.14965 0.471226 14.512C0.413647 14.76 0.361031 15.0064 0.314371 15.2507C0.2055 15.8179 0.127072 16.3749 0.0787583 16.9179C0.0787583 16.9209 0.0771037 16.9222 0.0771037 16.9268C0.0618815 17.0282 0.0469903 17.1295 0.0317681 17.2308C0.0105894 17.4185 0 17.6093 0 17.8013V36.4648C0 40.0743 2.96469 43 6.62364 43H23.9836C27.6422 43 30.6072 40.0743 30.6072 36.4648V17.0133C30.6072 16.4454 30.4937 15.904 30.2862 15.41ZM27.0753 36.4665C27.0753 38.1409 25.6994 39.4995 24.0001 39.4995H6.64019C6.60246 39.4995 6.56772 39.4995 6.53132 39.4981H6.52536C6.50286 39.4981 6.48002 39.4965 6.45752 39.4948C6.43469 39.4935 6.41053 39.4919 6.38637 39.4905C6.34236 39.4872 6.29868 39.4829 6.25467 39.4783C6.24871 39.477 6.24276 39.477 6.23812 39.4753C4.72318 39.2876 3.5471 38.0095 3.5471 36.4648V35.539C3.55306 35.548 3.55902 35.5572 3.56365 35.5662V19.3367C3.56365 19.092 3.5931 18.8542 3.64869 18.6264C3.97233 17.293 5.18878 16.302 6.63886 16.302H24.0001C25.4538 16.302 26.6706 17.296 26.9919 18.6327C27.0465 18.8585 27.0753 19.0943 27.0753 19.3367V36.4665Z" fill="#070707"/>
<path d="M30.6072 17.0133V19.2576C29.4338 19.0261 28.256 18.8205 27.0753 18.645C27.0475 18.6407 27.0197 18.6367 26.9919 18.6328C19.2548 17.4722 11.3859 17.4692 3.64869 18.6265C3.62024 18.6305 3.59211 18.6348 3.56365 18.6391C2.37235 18.8175 1.18369 19.0232 0 19.2576V17.8013C0 17.6093 0.0105894 17.4186 0.0317681 17.2308C0.0469903 17.1295 0.0618815 17.0282 0.0771037 16.9269C0.0771037 16.9222 0.0787583 16.9209 0.0787583 16.9179C0.127072 16.3749 0.2055 15.818 0.314371 15.2508C0.361031 15.0064 0.413647 14.7601 0.471226 14.5121C5.37178 13.5717 10.3369 13.1035 15.3036 13.1035C20.2703 13.1035 24.9482 13.5456 29.7098 14.4326C29.8027 14.5508 29.8894 14.673 29.9695 14.8001C29.9844 14.824 29.999 14.8478 30.0135 14.872C30.0844 14.9895 30.1492 15.1111 30.2081 15.2356C30.2356 15.2932 30.2614 15.3511 30.2862 15.41C30.4937 15.9041 30.6072 16.4454 30.6072 17.0133Z" fill="#3D42DF"/>
<path d="M29.5793 14.735C30.4546 16.7889 32.828 17.7442 34.8806 16.8684C36.9333 15.9926 37.888 13.6179 37.0127 11.564L29.5793 14.735Z" fill="#3D42DF"/>
<path d="M29.7286 14.4429C28.7557 17.5573 30.4904 20.8711 33.603 21.8446C36.7156 22.818 40.0274 21.0824 41.0003 17.9679L29.7289 14.4429H29.7286Z" fill="#3D42DF"/>
<path d="M20.7343 22.6475C19.3213 22.659 18.0496 23.1769 16.9982 24.2282C16.622 24.6043 16.4211 25.0364 16.8037 25.496C17.1931 25.9636 17.626 25.8036 18.0744 25.5053C19.6297 24.4712 21.134 24.6643 22.4501 26.0384C23.0931 26.7099 24.023 26.7609 24.6083 26.1573C25.2033 25.5437 25.1362 24.6209 24.422 24.0067C23.3856 23.1153 22.1784 22.6564 20.7346 22.6475H20.7343Z" fill="black"/>
<path d="M9.56522 24.5189L8.61581 25.4688L8.30442 25.7804H7.10882C6.90166 25.7804 6.73389 25.6125 6.73389 25.4053V23.6325C6.73389 23.4255 6.90166 23.2573 7.10882 23.2573H8.30442L8.61581 23.5689L9.56522 24.5189Z" fill="black"/>
<path d="M11.1374 21.7497V22.946L10.826 23.2572L9.87664 24.2072L8.61584 22.9456V21.7493C8.61584 21.5424 8.78362 21.3745 8.99077 21.3745H10.7625C10.9693 21.3745 11.1374 21.5424 11.1374 21.7493V21.7497Z" fill="black"/>
<path d="M11.1374 26.0918V27.2881C11.1374 27.4954 10.9697 27.6632 10.7625 27.6632H8.99077C8.78362 27.6632 8.61584 27.4954 8.61584 27.2881V26.0918L8.92691 25.7805L9.87664 24.8306L10.826 25.7805L11.1371 26.0918H11.1374Z" fill="black"/>
<path d="M13.0193 23.6325V25.4053C13.0193 25.6125 12.8515 25.7804 12.6444 25.7804H11.4488L11.1374 25.4688L10.188 24.5189L11.1374 23.5689L11.4488 23.2573H12.6444C12.8515 23.2573 13.0193 23.4252 13.0193 23.6325Z" fill="black"/>
<path d="M24.0164 32.2756C23.5567 32.8937 22.9766 33.4245 22.3333 33.8639C21.6894 34.3036 20.9723 34.6374 20.2267 34.8725C20.0411 34.9334 19.8505 34.9788 19.6615 35.0288C19.4699 35.0675 19.28 35.1142 19.0864 35.141L18.7968 35.1834C18.7005 35.199 18.6026 35.2029 18.5056 35.2129C18.4087 35.2211 18.3117 35.2307 18.2144 35.2354L17.9225 35.2437L17.7766 35.2463L17.6307 35.2427L17.3398 35.2317C17.2418 35.2281 17.1568 35.2198 17.0648 35.2129L16.7934 35.1903C16.6124 35.1741 16.4318 35.1576 16.2507 35.136C16.0697 35.1158 15.889 35.0943 15.708 35.0665C15.4483 35.0268 15.2699 34.7837 15.3093 34.5238C15.3414 34.3129 15.5078 34.1556 15.708 34.1248C15.889 34.097 16.0697 34.0755 16.2507 34.0553C16.4318 34.0338 16.6124 34.0172 16.7934 34.001L17.3325 33.9569L17.584 33.9324L17.7094 33.9209L17.8342 33.9033L18.0834 33.8715C18.1661 33.8593 18.2485 33.8424 18.3309 33.8298C18.4963 33.806 18.6588 33.7672 18.8223 33.7348C18.9044 33.7199 18.9848 33.698 19.0655 33.6772L19.3081 33.6182L19.5473 33.5477C19.6274 33.5248 19.7078 33.504 19.7859 33.4755C20.418 33.2692 21.0328 33.0106 21.6248 32.6961C22.2165 32.3799 22.7827 32.0117 23.3509 31.61L23.3605 31.6034C23.5749 31.4517 23.8718 31.5027 24.023 31.7173C24.1444 31.8895 24.1352 32.1153 24.016 32.2759L24.0164 32.2756Z" fill="black"/>
</g>
<defs>
<clipPath id="clip0_1703_9185">
<rect width="41" height="43" fill="white"/>
</clipPath>
</defs>
</svg>
