<svg width="15" height="20" viewBox="0 0 15 20" fill="none" xmlns="http://www.w3.org/2000/svg">
<path d="M3.87037 10.0093C2.53161 10.4798 1.29886 10.9133 0.00806147 11.3666C0.00806147 10.8503 -0.0112922 10.388 0.0223663 9.93018C0.0299395 9.82674 0.209171 9.69632 0.332866 9.65135C1.31317 9.29156 2.29852 8.94976 3.28219 8.60076C3.94021 8.3669 3.94358 8.3606 3.80811 7.55108C2.5619 7.99362 1.31906 8.43526 0.00553709 8.90209C0.00553709 8.3705 -0.0138165 7.91087 0.0198419 7.45483C0.0274151 7.3496 0.200756 7.21378 0.322768 7.1688C1.36955 6.78742 2.41885 6.41055 3.47573 6.06245C3.76771 5.96621 3.86785 5.82859 3.86532 5.49938C3.85018 3.85064 3.85859 2.20191 3.85859 0.552277C3.85859 0.37598 3.85859 0.198784 3.85859 0H5.88483V5.18546C7.98176 4.4371 10.0055 3.71482 12.0814 2.97456C12.0814 3.48006 12.1041 3.9298 12.0662 4.37234C12.0561 4.48837 11.876 4.63768 11.7456 4.68536C10.0097 5.32038 8.26954 5.94102 6.53023 6.56346C5.84024 6.80991 5.83939 6.80811 5.94626 7.64912C7.98007 6.92414 10.0046 6.20187 12.0797 5.4616C12.0797 5.9671 12.1024 6.43033 12.0628 6.88727C12.0536 6.997 11.8516 7.12922 11.7153 7.1787C9.93732 7.82092 8.15846 8.45955 6.37204 9.07299C6.0262 9.19172 5.89072 9.34822 5.89325 9.75569C5.91176 12.3039 5.9025 14.8521 5.9025 17.4003C5.9025 17.5604 5.9025 17.7214 5.9025 17.8806C9.47115 17.9031 12.6552 14.3682 13.0103 10.0147H14.9903C15.2436 14.9178 10.512 20.6429 3.86869 19.9413V10.0093H3.87037Z" fill="#808191"/>
</svg>
