<svg width="48" height="37" viewBox="0 0 48 37" fill="none" xmlns="http://www.w3.org/2000/svg">
<path d="M17.9048 0C19.987 0.388155 22.0337 0.942662 24.0704 1.52063C25.2356 1.85902 26.3976 2.20914 27.5521 2.58201C29.3656 3.15962 31.1713 3.81366 32.8139 4.78902C33.5497 5.23583 34.2563 5.74057 34.8602 6.35621C35.5146 6.99567 36.0503 7.75421 36.4434 8.57957C37.1597 10.0753 37.4049 11.7463 37.4774 13.3892C37.5115 14.4613 37.5094 15.5425 37.3093 16.6007C37.1429 17.5203 36.8472 18.4271 36.3553 19.2258C35.9209 19.9313 35.317 20.5413 34.584 20.9344C33.8809 21.3133 33.0758 21.4939 32.2786 21.4779C31.0693 21.4907 29.896 21.105 28.8108 20.5999C28.7912 16.991 28.8079 13.3814 28.8022 9.77283C28.7944 9.11986 28.8388 8.46014 28.7073 7.81606C28.6149 7.317 28.4112 6.81404 28.0195 6.47529C27.7597 6.24105 27.4231 6.10882 27.0847 6.03737C26.7424 5.97233 26.3773 6.11771 26.1655 6.39247C25.8132 6.83252 25.7208 7.41689 25.7048 7.96464C25.702 17.6262 25.7084 27.2881 25.702 36.949C23.1029 36.1254 20.5035 35.3011 17.9051 34.4751C17.9023 22.9832 17.9033 11.4918 17.9048 0Z" fill="white"/>
<path d="M6.22281 24.4491C9.61135 23.2494 12.9963 22.0384 16.3863 20.8427C16.3916 22.1731 16.3863 23.5039 16.3884 24.8355C16.3863 25.016 16.398 25.1973 16.3753 25.3768C13.6959 26.3266 11.0218 27.2931 8.34487 28.2489C7.97378 28.3889 7.59309 28.5478 7.30695 28.8311C7.17365 28.964 7.06524 29.1603 7.13811 29.3508C7.22981 29.5751 7.45872 29.697 7.66986 29.7894C8.25707 30.0283 8.89902 30.062 9.52462 30.0908C10.222 30.0798 10.9223 30.0276 11.6054 29.8768C12.0672 29.7862 12.5115 29.6305 12.9515 29.4652C14.0954 29.0511 15.2392 28.6345 16.3849 28.2247C16.3934 29.3501 16.3863 30.4761 16.3884 31.6026C16.3849 31.8276 16.3987 32.054 16.3763 32.2783C14.9695 32.531 13.5459 32.7027 12.1159 32.7251C9.23635 32.7901 6.35007 32.3444 3.61485 31.4444C2.71769 31.1846 1.82621 30.8387 1.07727 30.2689C0.664948 29.9497 0.295987 29.5484 0.108308 29.0547C-0.0488022 28.6367 -0.0374277 28.1536 0.158427 27.7502C0.347173 27.3478 0.677033 27.0297 1.04031 26.7826C1.88095 26.2022 2.80798 25.7596 3.74744 25.3647C4.5568 25.0192 5.39639 24.7505 6.22281 24.4491Z" fill="white"/>
<path d="M33.4872 22.9338C34.2557 22.845 35.0292 22.824 35.8016 22.7963C38.3434 22.8059 40.8981 23.1222 43.3293 23.8847C43.8064 24.0297 44.2685 24.2174 44.7437 24.3688C45.5907 24.6784 46.4389 25.0537 47.1171 25.6626C47.5248 26.0344 47.876 26.5353 47.8809 27.1072C47.9051 27.5725 47.6943 28.0189 47.3925 28.3623C46.8181 29.0064 46.0589 29.4489 45.2964 29.8349C44.4849 30.2487 43.6126 30.5156 42.7617 30.8306C37.5678 32.6956 32.3736 34.56 27.1804 36.4272C27.1797 34.9723 27.1818 33.5178 27.1797 32.0636C27.1875 32.0057 27.1555 31.9044 27.2376 31.8891C31.1896 30.4829 35.1404 29.0729 39.0916 27.6631C39.6259 27.4634 40.2014 27.3187 40.6549 26.9561C40.8405 26.8104 41.0221 26.5786 40.9311 26.3288C40.8362 26.1102 40.6094 25.9889 40.4008 25.8987C39.8093 25.6644 39.1652 25.6189 38.5361 25.6015C37.5511 25.6083 36.5573 25.7298 35.6206 26.0455C32.8058 27.0318 29.9959 28.0303 27.1804 29.0135C27.1808 27.4513 27.1797 25.8901 27.1811 24.3283C29.2182 23.6135 31.3452 23.1802 33.4872 22.9338Z" fill="white"/>
</svg>
