<svg width="100" height="125" viewBox="0 0 100 125" fill="none" xmlns="http://www.w3.org/2000/svg">
<path d="M4.42605 0C11.9183 1.39665 19.2827 3.39186 26.6113 5.47149C30.8038 6.68908 34.9848 7.94888 39.1389 9.29053C45.6643 11.3689 52.1615 13.7222 58.0717 17.2317C60.7192 18.8394 63.2618 20.6556 65.4348 22.8708C67.7894 25.1717 69.7169 27.901 71.1314 30.8708C73.7086 36.2528 74.591 42.2653 74.852 48.1767C74.9747 52.0341 74.9671 55.9248 74.247 59.7323C73.6484 63.0411 72.5843 66.3038 70.8142 69.1776C69.2513 71.7164 67.0783 73.9111 64.441 75.3257C61.9112 76.6891 59.0143 77.3388 56.1456 77.2813C51.7945 77.3273 47.5725 75.9396 43.6678 74.1222C43.5975 61.1367 43.6576 48.1486 43.6371 35.1644C43.609 32.8149 43.7688 30.4411 43.2956 28.1236C42.9631 26.3279 42.2302 24.5181 40.8208 23.2992C39.8859 22.4564 38.6747 21.9806 37.4571 21.7235C36.2254 21.4895 34.9119 22.0126 34.1496 23.0012C32.8821 24.5846 32.5496 26.6873 32.4921 28.6582C32.4818 63.4222 32.5048 98.1875 32.4818 132.949C23.1299 129.986 13.7767 127.02 4.42733 124.047C4.4171 82.6978 4.42094 41.3495 4.42605 0Z" fill="white"/>
<path d="M60.4924 82.5201C63.2576 82.2004 66.0407 82.1249 68.8199 82.0251C77.9659 82.0597 87.158 83.198 95.9062 85.9414C97.6226 86.4632 99.2853 87.1385 100.995 87.6834C104.043 88.7974 107.095 90.148 109.535 92.3389C111.002 93.6767 112.266 95.4788 112.284 97.5366C112.371 99.2108 111.612 100.817 110.526 102.053C108.459 104.37 105.728 105.963 102.984 107.352C100.064 108.84 96.9255 109.801 93.8637 110.934C75.1752 117.645 56.4854 124.353 37.7994 131.072C37.7969 125.837 37.8045 120.603 37.7969 115.371C37.825 115.162 37.7099 114.798 38.0054 114.743C52.2251 109.683 66.441 104.609 80.6582 99.537C82.5805 98.8182 84.6511 98.2976 86.2831 96.9931C86.9508 96.4687 87.6043 95.6348 87.2769 94.7357C86.9354 93.9491 86.1194 93.513 85.3686 93.1881C83.2404 92.3453 80.9229 92.1815 78.6591 92.1189C75.115 92.1432 71.539 92.5806 68.1689 93.7163C58.0406 97.2655 47.9303 100.858 37.7994 104.396C37.8007 98.7747 37.7969 93.1574 37.802 87.5376C45.1318 84.9655 52.7853 83.4064 60.4924 82.5201Z" fill="white"/>
</svg>
