<svg width="20" height="18" viewBox="0 0 20 18" fill="none" xmlns="http://www.w3.org/2000/svg">
<path d="M19.2308 2.27344H0.769231C0.348718 2.27344 0 1.75812 0 1.13672C0 0.515312 0.348718 0 0.769231 0H19.2308C19.6513 0 20 0.515312 20 1.13672C20 1.75812 19.6513 2.27344 19.2308 2.27344Z" fill="#292D32"/>
<path d="M19.2308 9.85156H0.769231C0.348718 9.85156 0 9.33625 0 8.71484C0 8.09344 0.348718 7.57812 0.769231 7.57812H19.2308C19.6513 7.57812 20 8.09344 20 8.71484C20 9.33625 19.6513 9.85156 19.2308 9.85156Z" fill="#292D32"/>
<path d="M19.2308 17.4297H0.769231C0.348718 17.4297 0 16.9144 0 16.293C0 15.6716 0.348718 15.1562 0.769231 15.1562H19.2308C19.6513 15.1562 20 15.6716 20 16.293C20 16.9144 19.6513 17.4297 19.2308 17.4297Z" fill="#292D32"/>
</svg>
