<svg width="20" height="20" viewBox="0 0 20 20" fill="none" xmlns="http://www.w3.org/2000/svg">
<path d="M10.8753 13.5416H9.30867C8.20034 13.5416 7.29199 12.6083 7.29199 11.4583C7.29199 11.1166 7.57533 10.8333 7.91699 10.8333C8.25866 10.8333 8.54199 11.1166 8.54199 11.4583C8.54199 11.9166 8.88367 12.2916 9.30867 12.2916H10.8753C11.2003 12.2916 11.4587 11.9999 11.4587 11.6416C11.4587 11.1916 11.3337 11.1249 11.0503 11.0249L8.54199 10.1499C8.00866 9.95827 7.29199 9.57495 7.29199 8.34995C7.29199 7.30828 8.117 6.44995 9.12534 6.44995H10.692C11.8003 6.44995 12.7087 7.38328 12.7087 8.53328C12.7087 8.87495 12.4253 9.15828 12.0837 9.15828C11.742 9.15828 11.4587 8.87495 11.4587 8.53328C11.4587 8.07495 11.117 7.69995 10.692 7.69995H9.12534C8.80034 7.69995 8.54199 7.99162 8.54199 8.34995C8.54199 8.79995 8.66698 8.86661 8.95032 8.96661L11.4587 9.84161C11.992 10.0333 12.7087 10.4166 12.7087 11.6416C12.7087 12.6916 11.8836 13.5416 10.8753 13.5416Z" fill="#292D32"/>
<path d="M10 14.375C9.65833 14.375 9.375 14.0917 9.375 13.75V6.25C9.375 5.90833 9.65833 5.625 10 5.625C10.3417 5.625 10.625 5.90833 10.625 6.25V13.75C10.625 14.0917 10.3417 14.375 10 14.375Z" fill="#292D32"/>
<path d="M10.0003 18.9583C5.05866 18.9583 1.04199 14.9416 1.04199 9.99996C1.04199 5.05829 5.05866 1.04163 10.0003 1.04163C10.342 1.04163 10.6253 1.32496 10.6253 1.66663C10.6253 2.00829 10.342 2.29163 10.0003 2.29163C5.75033 2.29163 2.29199 5.74996 2.29199 9.99996C2.29199 14.25 5.75033 17.7083 10.0003 17.7083C14.2503 17.7083 17.7087 14.25 17.7087 9.99996C17.7087 9.65829 17.992 9.37496 18.3337 9.37496C18.6753 9.37496 18.9587 9.65829 18.9587 9.99996C18.9587 14.9416 14.942 18.9583 10.0003 18.9583Z" fill="#292D32"/>
<path d="M18.3333 5.62496C17.9917 5.62496 17.7083 5.34163 17.7083 4.99996V2.29163H15C14.6583 2.29163 14.375 2.00829 14.375 1.66663C14.375 1.32496 14.6583 1.04163 15 1.04163H18.3333C18.675 1.04163 18.9583 1.32496 18.9583 1.66663V4.99996C18.9583 5.34163 18.675 5.62496 18.3333 5.62496Z" fill="#292D32"/>
<path d="M14.1669 6.45828C14.0085 6.45828 13.8502 6.39995 13.7252 6.27495C13.4835 6.03328 13.4835 5.63329 13.7252 5.39162L17.8919 1.22495C18.1335 0.983285 18.5335 0.983285 18.7752 1.22495C19.0169 1.46662 19.0169 1.86662 18.7752 2.10828L14.6085 6.27495C14.4835 6.39995 14.3252 6.45828 14.1669 6.45828Z" fill="#292D32"/>
</svg>
