<svg width="120" height="21" viewBox="0 0 120 21" fill="none" xmlns="http://www.w3.org/2000/svg">
<path d="M9.87402 1.90735e-05V18.3675L14.1814 19.6851V4.28421C14.1814 3.55849 14.5166 3.07665 15.0541 3.24236C15.7569 3.43056 15.8934 4.09907 15.8934 4.8167V10.9676C18.5746 12.2205 20.6854 10.9669 20.6854 7.66104C20.6854 4.2829 19.4479 2.77798 15.8064 1.56803C14.37 1.10627 11.7081 0.32707 9.87402 1.90735e-05Z" fill="#BDBDC7"/>
<path d="M15.001 16.9998L21.919 14.6225C22.7016 14.3424 22.8212 13.9618 22.1879 13.7618C21.5445 13.5581 20.3963 13.6164 19.6053 13.8907L15.001 15.4589V12.9567L15.2646 12.8726C15.2646 12.8726 16.5974 12.4167 18.472 12.2205C20.3429 12.0225 22.6374 12.2462 24.4407 12.9025C26.4722 13.5256 26.6999 14.4345 26.1859 15.067C25.6645 15.6929 24.4002 16.1457 24.4002 16.1457L15.001 19.4058" fill="#BDBDC7"/>
<path d="M1.98212 16.7467C-0.100704 16.1865 -0.448029 15.0027 0.502141 14.3189C1.3786 13.6945 2.87124 13.2245 2.87124 13.2245L9.04147 11.1004V13.5179L4.60538 15.0532C3.8196 15.3245 3.70179 15.7064 4.33471 15.9061C4.97893 16.114 6.12221 16.0581 6.90844 15.778L9.04147 15.0355V17.1936C8.90398 17.2159 8.75112 17.2384 8.61161 17.2613C6.48492 17.6021 4.21916 17.4622 1.98212 16.7467Z" fill="#BDBDC7"/>
<path d="M25.0865 18.4325C25.0865 18.4936 25.0714 18.5336 25.039 18.5537C25.0017 18.5781 24.9529 18.5903 24.8914 18.5903H24.582V18.2856H24.9095C24.9558 18.2856 24.9904 18.2932 25.0182 18.3037C25.0634 18.3251 25.0865 18.3681 25.0865 18.4325ZM25.3101 19.1314C25.2945 19.127 25.2837 19.1121 25.2746 19.087C25.2706 19.0676 25.2676 19.0401 25.2667 19.0047L25.2618 18.8665C25.2595 18.8026 25.2468 18.7528 25.219 18.7231C25.2052 18.6997 25.1806 18.6849 25.1571 18.6687C25.1878 18.6417 25.2161 18.6139 25.24 18.5836C25.2676 18.5406 25.2837 18.4823 25.2837 18.4201C25.2837 18.2932 25.2272 18.203 25.117 18.153C25.0621 18.1306 24.9904 18.1159 24.9052 18.1159H24.3828V19.2008H24.582V18.7591H24.8857C24.9422 18.7591 24.9802 18.7661 25.008 18.7751C25.0456 18.7982 25.0659 18.8331 25.0684 18.8932L25.0781 19.0624C25.0811 19.1056 25.084 19.1314 25.0865 19.151L25.1014 19.1883L25.1055 19.2008H25.3242V19.139M23.9735 18.6829C23.9735 18.4613 24.0595 18.2581 24.2164 18.1074C24.3772 17.9535 24.5918 17.8705 24.8147 17.8705C25.0379 17.8705 25.2471 17.9535 25.404 18.1074C25.5623 18.2581 25.6477 18.4613 25.6477 18.6829C25.6477 19.127 25.2737 19.4874 24.8147 19.4874C24.5918 19.4874 24.3772 19.4054 24.2164 19.2534C24.0595 19.1001 23.9735 18.8991 23.9735 18.6829ZM24.8147 19.6538C25.084 19.6538 25.3341 19.5512 25.5247 19.3695C25.7131 19.1846 25.8194 18.9432 25.8194 18.6829C25.8194 18.4203 25.7131 18.1747 25.5247 17.9932C25.3341 17.8077 25.084 17.7083 24.8147 17.7083C24.2557 17.7083 23.8037 18.1439 23.8037 18.6829C23.8037 18.9432 23.908 19.1846 24.0963 19.3695C24.2872 19.5512 24.5454 19.6538 24.8147 19.6538Z" fill="#BDBDC7"/>
<path d="M40.4474 4.82027L35.2457 4.81809C35.2242 4.81809 35.207 4.83446 35.207 4.85346V16.5998C35.207 16.6185 35.2242 16.6362 35.2457 16.6362H37.3538L37.3909 16.5998L37.3934 6.12847L37.4059 6.11101L39.8197 6.10664C40.6987 6.10664 41.1814 6.96182 41.1814 8.51149C41.1814 10.062 40.6987 10.9192 39.8197 10.9192L38.3669 10.9176C38.3452 10.9176 38.3305 10.9336 38.3305 10.9537V12.1724C38.3305 12.1962 38.3452 12.2106 38.3669 12.2106H40.4474C41.1814 12.2106 41.9003 11.8822 42.419 11.3178C43.0336 10.648 43.3572 9.68106 43.3572 8.52219C43.3572 6.2765 42.2212 4.82027 40.4474 4.82027Z" fill="#BDBDC7"/>
<path d="M46.805 4.81809H44.6955C44.6715 4.81809 44.6543 4.83446 44.6543 4.85346V16.5998C44.6543 16.6188 44.6715 16.6362 44.6955 16.6362H46.805L46.8436 16.5998V4.85346L46.805 4.81809Z" fill="#BDBDC7"/>
<path d="M56.0056 7.677C56.0056 7.65626 55.9866 7.64054 55.9658 7.64054H52.2093C48.8407 7.64054 48.4102 10.0279 48.4102 12.126L48.4126 13.9405C48.4126 15.502 49.4184 16.6357 50.8012 16.6357H52.8508L52.8879 16.5995V15.3821C52.8879 15.3623 52.8704 15.3446 52.8508 15.3446L51.3868 15.347C51.0495 15.3402 50.5954 15.2024 50.5954 14.0829V12.1238C50.5938 10.822 50.7193 9.98972 50.9993 9.51617C51.3025 8.9935 51.7798 8.92342 52.2093 8.92342H53.8104L53.824 8.94176L53.822 16.5995C53.822 16.6181 53.8382 16.6357 53.8606 16.6357H55.9663C55.9871 16.6357 56.0056 16.6181 56.0056 16.5995" fill="#BDBDC7"/>
<path d="M71.1795 9.7334L70.1407 9.65699C69.3617 9.59215 68.7824 9.17558 68.7824 7.94314C68.7824 6.50416 69.4508 6.11052 70.3431 6.11052H73.2183L73.2565 6.07471V4.85319L73.2183 4.81804H73.1581L70.0433 4.81869C68.081 4.81869 66.6855 5.93149 66.6855 8.14924V8.24574C66.6855 9.99561 67.8008 11.2586 69.4628 11.3813L70.4966 11.4553C71.2853 11.513 71.7765 12.1939 71.7765 13.2273V13.5178C71.7765 14.1639 71.6092 15.3459 70.1742 15.3459H67.1869C67.1667 15.3459 67.1493 15.3627 67.1493 15.3834V16.5993L67.1869 16.6357H70.8957C72.0386 16.6357 73.9522 16.1893 73.9522 13.186C73.9522 12.0979 73.6963 11.2403 73.1773 10.6205C72.735 10.0882 72.0797 9.80021 71.1795 9.7334Z" fill="#BDBDC7"/>
<path d="M88.4555 7.677C88.4555 7.65626 88.4377 7.64054 88.4178 7.64054H84.6528C81.2915 7.64054 80.8564 10.0279 80.8564 12.126L80.8592 13.9405C80.8592 15.502 81.8641 16.6357 83.254 16.6357H85.298L85.336 16.5995V15.3821C85.336 15.3623 85.3181 15.3446 85.298 15.3446L83.8331 15.347C83.4971 15.3402 83.0471 15.2024 83.0458 14.0829V12.1238C83.0458 10.822 83.1726 9.98972 83.446 9.51617C83.7495 8.9935 84.23 8.92342 84.6522 8.92342H86.2606L86.2764 8.94176L86.2726 16.5995C86.2726 16.6181 86.29 16.6357 86.311 16.6357H88.4196C88.4404 16.6357 88.4555 16.6181 88.4555 16.5995" fill="#BDBDC7"/>
<path d="M79.981 7.64103H77.6927L77.6807 7.62749V6.14725C77.6807 6.1276 77.6651 6.11101 77.6438 6.11101H75.5363C75.5149 6.11101 75.4961 6.1276 75.4961 6.14725V13.9419C75.4961 15.5031 76.5042 16.6362 77.8921 16.6362H79.4015C79.4232 16.6362 79.4399 16.6185 79.4399 16.5998V15.3837C79.4399 15.3638 79.4232 15.3451 79.4015 15.3451H78.4748C78.2374 15.3416 77.6807 15.33 77.6784 14.1796V8.9322L77.6913 8.92041C78.3923 8.9239 79.981 8.92041 79.981 8.92041L80.0181 8.88701V7.67749C80.0181 7.65697 80.0007 7.64103 79.981 7.64103Z" fill="#BDBDC7"/>
<path d="M94.699 7.64103H92.4235L92.4081 7.62749V6.14725L92.3733 6.11101H90.2615C90.2407 6.11101 90.2227 6.1276 90.2227 6.14725V13.9419C90.2227 15.5031 91.2289 16.6362 92.6159 16.6362H94.1249C94.1475 16.6362 94.1622 16.6185 94.1622 16.5998V15.3837C94.1622 15.3638 94.1475 15.3451 94.1249 15.3451H93.1984C92.9603 15.3416 92.4081 15.33 92.4081 14.1796V8.9322L92.4208 8.92041C93.1164 8.9239 94.699 8.92041 94.699 8.92041L94.7365 8.88701V7.67749C94.7365 7.65697 94.7175 7.64103 94.699 7.64103Z" fill="#BDBDC7"/>
<path d="M98.1838 7.64103H96.0765C96.0569 7.64103 96.0381 7.65697 96.0381 7.67749V16.5998L96.0765 16.6362H98.1838C98.2068 16.6362 98.2227 16.6185 98.2227 16.5998V7.67749C98.2227 7.65697 98.2068 7.64103 98.1838 7.64103Z" fill="#BDBDC7"/>
<path d="M98.1838 4.81805H96.0765L96.0381 4.85342V6.55919C96.0381 6.57993 96.0569 6.59521 96.0765 6.59521H98.1838C98.2068 6.59521 98.2227 6.57993 98.2227 6.55919V4.85342C98.2227 4.83442 98.2068 4.81805 98.1838 4.81805Z" fill="#BDBDC7"/>
<path d="M112.764 7.64103H109.003C108.983 7.64103 108.966 7.65697 108.966 7.67749L108.965 16.5998L109 16.6362H111.111L111.147 16.5998L111.144 8.93984L111.159 8.925L112.762 8.92391C113.196 8.92391 113.672 8.99137 113.976 9.47561C114.255 9.91314 114.381 10.6823 114.381 11.8894C114.383 11.9416 114.379 16.5998 114.379 16.5998C114.379 16.6185 114.396 16.6362 114.417 16.6362H116.519C116.542 16.6362 116.558 16.6185 116.558 16.5998V12.1252C116.558 10.0282 116.124 7.64103 112.764 7.64103Z" fill="#BDBDC7"/>
<path d="M104.933 14.7541C104.602 15.2815 104.075 15.3521 103.597 15.3521C103.124 15.3521 102.596 15.2815 102.261 14.7541C101.958 14.2794 101.818 13.4478 101.818 12.1366V12.1261C101.818 10.5786 102.015 9.69941 102.457 9.28066C102.721 9.02653 103.063 8.92349 103.597 8.92349C104.139 8.92349 104.478 9.02653 104.742 9.28066C105.179 9.69941 105.377 10.5823 105.377 12.1366C105.377 13.4496 105.236 14.2818 104.933 14.7541ZM103.597 7.64083C100.077 7.64083 99.627 10.0393 99.627 12.1366C99.627 14.2362 100.077 16.6426 103.597 16.6426C107.118 16.6426 107.567 14.2362 107.567 12.1366C107.567 10.0393 107.118 7.64083 103.597 7.64083Z" fill="#BDBDC7"/>
<path d="M57.1943 7.64092L57.1699 7.67629L60.2968 16.5169C60.302 16.5368 60.302 16.5674 60.2954 16.5868L58.5348 20.964C58.5273 20.9847 58.5371 21 58.5579 21H60.3913C60.4139 21 60.4376 20.9847 60.4451 20.964L65.934 7.67629C65.9417 7.65511 65.932 7.64092 65.9105 7.64092H63.9102C63.8885 7.64092 63.8657 7.65686 63.8589 7.67629L61.535 13.4857H61.509L59.4574 7.67629C59.4526 7.65511 59.4291 7.64092 59.4081 7.64092" fill="#BDBDC7"/>
<path d="M119.268 15.4171C119.268 15.4761 119.251 15.5145 119.219 15.5374C119.183 15.5623 119.134 15.5728 119.074 15.5728H118.764V15.2691H119.091C119.138 15.2691 119.173 15.2761 119.199 15.2879C119.244 15.309 119.268 15.3514 119.268 15.4171ZM119.491 16.1155C119.476 16.1101 119.464 16.0952 119.455 16.0706C119.452 16.0522 119.449 16.0221 119.449 15.9882L119.444 15.8518C119.441 15.785 119.429 15.735 119.399 15.7077C119.386 15.6837 119.362 15.6673 119.339 15.6505C119.368 15.6243 119.397 15.5974 119.421 15.5664C119.449 15.5234 119.464 15.4675 119.464 15.4053C119.464 15.2761 119.408 15.1866 119.299 15.137C119.242 15.1147 119.173 15.0999 119.086 15.0999H118.565V16.1843H118.764V15.742H119.067C119.123 15.742 119.163 15.7496 119.188 15.7583C119.226 15.7815 119.247 15.8171 119.25 15.8765L119.26 16.0465C119.262 16.0885 119.265 16.1155 119.268 16.1326L119.282 16.1712L119.286 16.1843H119.505V16.1214M118.155 15.6664C118.155 15.4442 118.241 15.2424 118.399 15.0896C118.56 14.9374 118.773 14.854 118.995 14.854C119.219 14.854 119.427 14.9374 119.585 15.0896C119.744 15.2424 119.83 15.4442 119.83 15.6664C119.83 16.1105 119.455 16.4712 118.995 16.4712C118.773 16.4712 118.56 16.3889 118.399 16.2369C118.241 16.0847 118.155 15.8821 118.155 15.6664ZM118.995 16.6362C119.265 16.6362 119.516 16.5336 119.707 16.3533C119.894 16.1692 120 15.9256 120 15.6664C120 15.4038 119.894 15.1577 119.707 14.9763C119.516 14.7918 119.265 14.6918 118.995 14.6918C118.439 14.6918 117.986 15.1267 117.986 15.6664C117.986 15.9256 118.09 16.1692 118.279 16.3533C118.469 16.5336 118.727 16.6362 118.995 16.6362Z" fill="#BDBDC7"/>
</svg>
