<svg width="120" height="21" viewBox="0 0 120 21" fill="none" xmlns="http://www.w3.org/2000/svg">
<g clip-path="url(#clip0_1357_7992)">
<path d="M9.87402 1.90735e-05V18.3675L14.1814 19.6851V4.28421C14.1814 3.55849 14.5166 3.07665 15.0541 3.24236C15.7569 3.43056 15.8934 4.09907 15.8934 4.8167V10.9676C18.5746 12.2205 20.6854 10.9669 20.6854 7.66104C20.6854 4.2829 19.4479 2.77798 15.8064 1.56803C14.37 1.10627 11.7081 0.32707 9.87402 1.90735e-05Z" fill="white"/>
<path d="M15.001 16.9998L21.919 14.6225C22.7016 14.3424 22.8212 13.9618 22.1879 13.7618C21.5445 13.5581 20.3963 13.6164 19.6053 13.8907L15.001 15.4589V12.9567L15.2646 12.8726C15.2646 12.8726 16.5974 12.4167 18.472 12.2205C20.3429 12.0225 22.6374 12.2462 24.4407 12.9025C26.4722 13.5256 26.6999 14.4345 26.1859 15.067C25.6645 15.6929 24.4002 16.1457 24.4002 16.1457L15.001 19.4058" fill="white"/>
<path d="M1.98212 16.7468C-0.100704 16.1866 -0.448029 15.0028 0.502141 14.319C1.3786 13.6946 2.87124 13.2246 2.87124 13.2246L9.04147 11.1005V13.518L4.60538 15.0533C3.8196 15.3247 3.70179 15.7065 4.33471 15.9063C4.97893 16.1141 6.12221 16.0582 6.90844 15.7781L9.04147 15.0356V17.1937C8.90398 17.216 8.75112 17.2385 8.61161 17.2614C6.48492 17.6022 4.21916 17.4623 1.98212 16.7468Z" fill="white"/>
<path d="M25.0865 18.4325C25.0865 18.4936 25.0714 18.5336 25.039 18.5537C25.0017 18.5781 24.9529 18.5903 24.8914 18.5903H24.582V18.2856H24.9095C24.9558 18.2856 24.9904 18.2932 25.0182 18.3037C25.0634 18.3251 25.0865 18.3681 25.0865 18.4325ZM25.3101 19.1314C25.2945 19.127 25.2837 19.1121 25.2746 19.087C25.2706 19.0676 25.2676 19.0401 25.2667 19.0047L25.2618 18.8665C25.2595 18.8026 25.2468 18.7528 25.219 18.7231C25.2052 18.6997 25.1806 18.6849 25.1571 18.6687C25.1878 18.6417 25.2161 18.6139 25.24 18.5836C25.2676 18.5406 25.2837 18.4823 25.2837 18.4201C25.2837 18.2932 25.2272 18.203 25.117 18.153C25.0621 18.1306 24.9904 18.1159 24.9052 18.1159H24.3828V19.2008H24.582V18.7591H24.8857C24.9422 18.7591 24.9802 18.7661 25.008 18.7751C25.0456 18.7982 25.0659 18.8331 25.0684 18.8932L25.0781 19.0624C25.0811 19.1056 25.084 19.1314 25.0865 19.151L25.1014 19.1883L25.1055 19.2008H25.3242V19.139M23.9735 18.6829C23.9735 18.4613 24.0595 18.2581 24.2164 18.1074C24.3772 17.9535 24.5918 17.8705 24.8147 17.8705C25.0379 17.8705 25.2471 17.9535 25.404 18.1074C25.5623 18.2581 25.6477 18.4613 25.6477 18.6829C25.6477 19.127 25.2737 19.4874 24.8147 19.4874C24.5918 19.4874 24.3772 19.4054 24.2164 19.2534C24.0595 19.1001 23.9735 18.8991 23.9735 18.6829ZM24.8147 19.6538C25.084 19.6538 25.3341 19.5512 25.5247 19.3695C25.7131 19.1846 25.8194 18.9432 25.8194 18.6829C25.8194 18.4203 25.7131 18.1747 25.5247 17.9932C25.3341 17.8077 25.084 17.7083 24.8147 17.7083C24.2557 17.7083 23.8037 18.1439 23.8037 18.6829C23.8037 18.9432 23.908 19.1846 24.0963 19.3695C24.2872 19.5512 24.5454 19.6538 24.8147 19.6538Z" fill="white"/>
<path d="M40.4474 4.82015L35.2457 4.81797C35.2242 4.81797 35.207 4.83434 35.207 4.85333V16.5996C35.207 16.6184 35.2242 16.6361 35.2457 16.6361H37.3538L37.3909 16.5996L37.3934 6.12835L37.4059 6.11089L39.8197 6.10652C40.6987 6.10652 41.1814 6.9617 41.1814 8.51137C41.1814 10.0619 40.6987 10.9191 39.8197 10.9191L38.3669 10.9175C38.3452 10.9175 38.3305 10.9335 38.3305 10.9535V12.1722C38.3305 12.196 38.3452 12.2104 38.3669 12.2104H40.4474C41.1814 12.2104 41.9003 11.8821 42.419 11.3177C43.0336 10.6479 43.3572 9.68093 43.3572 8.52207C43.3572 6.27638 42.2212 4.82015 40.4474 4.82015Z" fill="white"/>
<path d="M46.805 4.81797H44.6955C44.6715 4.81797 44.6543 4.83434 44.6543 4.85333V16.5996C44.6543 16.6186 44.6715 16.6361 44.6955 16.6361H46.805L46.8436 16.5996V4.85333L46.805 4.81797Z" fill="white"/>
<path d="M56.0056 7.67712C56.0056 7.65638 55.9866 7.64066 55.9658 7.64066H52.2093C48.8407 7.64066 48.4102 10.028 48.4102 12.1261L48.4126 13.9406C48.4126 15.5021 49.4184 16.6359 50.8012 16.6359H52.8508L52.8879 16.5996V15.3822C52.8879 15.3624 52.8704 15.3447 52.8508 15.3447L51.3868 15.3471C51.0495 15.3403 50.5954 15.2026 50.5954 14.083V12.124C50.5938 10.8221 50.7193 9.98984 50.9993 9.51629C51.3025 8.99362 51.7798 8.92354 52.2093 8.92354H53.8104L53.824 8.94188L53.822 16.5996C53.822 16.6182 53.8382 16.6359 53.8606 16.6359H55.9663C55.9871 16.6359 56.0056 16.6182 56.0056 16.5996" fill="white"/>
<path d="M71.1795 9.73352L70.1407 9.65711C69.3617 9.59227 68.7824 9.1757 68.7824 7.94326C68.7824 6.50428 69.4508 6.11064 70.3431 6.11064H73.2183L73.2565 6.07484V4.85331L73.2183 4.81816H73.1581L70.0433 4.81881C68.081 4.81881 66.6855 5.93162 66.6855 8.14936V8.24586C66.6855 9.99573 67.8008 11.2587 69.4628 11.3814L70.4966 11.4555C71.2853 11.5131 71.7765 12.194 71.7765 13.2274V13.518C71.7765 14.164 71.6092 15.346 70.1742 15.346H67.1869C67.1667 15.346 67.1493 15.3628 67.1493 15.3836V16.5994L67.1869 16.6359H70.8957C72.0386 16.6359 73.9522 16.1894 73.9522 13.1861C73.9522 12.098 73.6963 11.2404 73.1773 10.6206C72.735 10.0883 72.0797 9.80033 71.1795 9.73352Z" fill="white"/>
<path d="M88.4555 7.67712C88.4555 7.65638 88.4377 7.64066 88.4178 7.64066H84.6528C81.2915 7.64066 80.8564 10.028 80.8564 12.1261L80.8592 13.9406C80.8592 15.5021 81.8641 16.6359 83.254 16.6359H85.298L85.336 16.5996V15.3822C85.336 15.3624 85.3181 15.3447 85.298 15.3447L83.8331 15.3471C83.4971 15.3403 83.0471 15.2026 83.0458 14.083V12.124C83.0458 10.8221 83.1726 9.98984 83.446 9.51629C83.7495 8.99362 84.23 8.92354 84.6522 8.92354H86.2606L86.2764 8.94188L86.2726 16.5996C86.2726 16.6182 86.29 16.6359 86.311 16.6359H88.4196C88.4404 16.6359 88.4555 16.6182 88.4555 16.5996" fill="white"/>
<path d="M79.981 7.64091H77.6927L77.6807 7.62737V6.14713C77.6807 6.12748 77.6651 6.11089 77.6438 6.11089H75.5363C75.5149 6.11089 75.4961 6.12748 75.4961 6.14713V13.9418C75.4961 15.503 76.5042 16.6361 77.8921 16.6361H79.4015C79.4232 16.6361 79.4399 16.6184 79.4399 16.5996V15.3836C79.4399 15.3637 79.4232 15.3449 79.4015 15.3449H78.4748C78.2374 15.3414 77.6807 15.3299 77.6784 14.1795V8.93208L77.6913 8.92029C78.3923 8.92378 79.981 8.92029 79.981 8.92029L80.0181 8.88689V7.67737C80.0181 7.65684 80.0007 7.64091 79.981 7.64091Z" fill="white"/>
<path d="M94.699 7.64091H92.4235L92.4081 7.62737V6.14713L92.3733 6.11089H90.2615C90.2407 6.11089 90.2227 6.12748 90.2227 6.14713V13.9418C90.2227 15.503 91.2289 16.6361 92.6159 16.6361H94.1249C94.1475 16.6361 94.1622 16.6184 94.1622 16.5996V15.3836C94.1622 15.3637 94.1475 15.3449 94.1249 15.3449H93.1984C92.9603 15.3414 92.4081 15.3299 92.4081 14.1795V8.93208L92.4208 8.92029C93.1164 8.92378 94.699 8.92029 94.699 8.92029L94.7365 8.88689V7.67737C94.7365 7.65684 94.7175 7.64091 94.699 7.64091Z" fill="white"/>
<path d="M98.1838 7.64091H96.0765C96.0569 7.64091 96.0381 7.65684 96.0381 7.67737V16.5996L96.0765 16.6361H98.1838C98.2068 16.6361 98.2227 16.6184 98.2227 16.5996V7.67737C98.2227 7.65684 98.2068 7.64091 98.1838 7.64091Z" fill="white"/>
<path d="M98.1838 4.81793H96.0765L96.0381 4.8533V6.55907C96.0381 6.57981 96.0569 6.59509 96.0765 6.59509H98.1838C98.2068 6.59509 98.2227 6.57981 98.2227 6.55907V4.8533C98.2227 4.8343 98.2068 4.81793 98.1838 4.81793Z" fill="white"/>
<path d="M112.764 7.64091H109.003C108.983 7.64091 108.966 7.65684 108.966 7.67737L108.965 16.5996L109 16.6361H111.111L111.147 16.5996L111.144 8.93972L111.159 8.92488L112.762 8.92378C113.196 8.92378 113.672 8.99125 113.976 9.47549C114.255 9.91301 114.381 10.6822 114.381 11.8893C114.383 11.9415 114.379 16.5996 114.379 16.5996C114.379 16.6184 114.396 16.6361 114.417 16.6361H116.519C116.542 16.6361 116.558 16.6184 116.558 16.5996V12.1251C116.558 10.0281 116.124 7.64091 112.764 7.64091Z" fill="white"/>
<path d="M104.933 14.7542C104.602 15.2817 104.075 15.3522 103.597 15.3522C103.124 15.3522 102.596 15.2817 102.261 14.7542C101.958 14.2796 101.818 13.448 101.818 12.1367V12.1262C101.818 10.5787 102.015 9.69953 102.457 9.28079C102.721 9.02666 103.063 8.92361 103.597 8.92361C104.139 8.92361 104.478 9.02666 104.742 9.28079C105.179 9.69953 105.377 10.5824 105.377 12.1367C105.377 13.4497 105.236 14.282 104.933 14.7542ZM103.597 7.64095C100.077 7.64095 99.627 10.0395 99.627 12.1367C99.627 14.2363 100.077 16.6427 103.597 16.6427C107.118 16.6427 107.567 14.2363 107.567 12.1367C107.567 10.0395 107.118 7.64095 103.597 7.64095Z" fill="white"/>
<path d="M57.1943 7.64092L57.1699 7.67629L60.2968 16.5169C60.302 16.5368 60.302 16.5674 60.2954 16.5868L58.5348 20.964C58.5273 20.9847 58.5371 21 58.5579 21H60.3913C60.4139 21 60.4376 20.9847 60.4451 20.964L65.934 7.67629C65.9417 7.65511 65.932 7.64092 65.9105 7.64092H63.9102C63.8885 7.64092 63.8657 7.65686 63.8589 7.67629L61.535 13.4857H61.509L59.4574 7.67629C59.4526 7.65511 59.4291 7.64092 59.4081 7.64092" fill="white"/>
<path d="M119.268 15.417C119.268 15.4759 119.251 15.5144 119.219 15.5373C119.183 15.5622 119.134 15.5727 119.074 15.5727H118.764V15.269H119.091C119.138 15.269 119.173 15.2759 119.199 15.2877C119.244 15.3089 119.268 15.3513 119.268 15.417ZM119.491 16.1154C119.476 16.1099 119.464 16.0951 119.455 16.0704C119.452 16.0521 119.449 16.022 119.449 15.9881L119.444 15.8517C119.441 15.7849 119.429 15.7349 119.399 15.7076C119.386 15.6836 119.362 15.6672 119.339 15.6504C119.368 15.6242 119.397 15.5973 119.421 15.5663C119.449 15.5233 119.464 15.4674 119.464 15.4052C119.464 15.2759 119.408 15.1864 119.299 15.1369C119.242 15.1146 119.173 15.0998 119.086 15.0998H118.565V16.1842H118.764V15.7419H119.067C119.123 15.7419 119.163 15.7495 119.188 15.7582C119.226 15.7814 119.247 15.817 119.25 15.8763L119.26 16.0464C119.262 16.0883 119.265 16.1154 119.268 16.1324L119.282 16.1711L119.286 16.1842H119.505V16.1213M118.155 15.6663C118.155 15.4441 118.241 15.2423 118.399 15.0895C118.56 14.9373 118.773 14.8539 118.995 14.8539C119.219 14.8539 119.427 14.9373 119.585 15.0895C119.744 15.2423 119.83 15.4441 119.83 15.6663C119.83 16.1104 119.455 16.4711 118.995 16.4711C118.773 16.4711 118.56 16.3887 118.399 16.2368C118.241 16.0846 118.155 15.882 118.155 15.6663ZM118.995 16.6361C119.265 16.6361 119.516 16.5335 119.707 16.3532C119.894 16.1691 120 15.9255 120 15.6663C120 15.4037 119.894 15.1576 119.707 14.9762C119.516 14.7917 119.265 14.6917 118.995 14.6917C118.439 14.6917 117.986 15.1266 117.986 15.6663C117.986 15.9255 118.09 16.1691 118.279 16.3532C118.469 16.5335 118.727 16.6361 118.995 16.6361Z" fill="white"/>
</g>
<defs>
<clipPath id="clip0_1357_7992">
<rect width="120" height="21" fill="white"/>
</clipPath>
</defs>
</svg>
