<svg width="22" height="23" viewBox="0 0 22 23" fill="none" xmlns="http://www.w3.org/2000/svg">
<path d="M2.04712 4.78847C2.76466 1.68916 7.43767 1.68916 8.14624 4.78847C8.5678 6.60685 7.41076 8.14754 6.4062 9.106C5.67071 9.80469 4.51368 9.79573 3.77819 9.106C2.7826 8.14754 1.62556 6.60685 2.04712 4.78847Z" stroke="white" stroke-width="1.5"/>
<path d="M13.7072 15.5375C14.4248 12.4382 19.1247 12.4382 19.8422 15.5375C20.2638 17.3559 19.1067 18.8966 18.0932 19.855C17.3577 20.5537 16.1917 20.5448 15.4562 19.855C14.4427 18.8966 13.2857 17.3559 13.7072 15.5375Z" stroke="white" stroke-width="1.5"/>
<path d="M10.9531 5.14673H13.3569C15.0162 5.14673 15.7876 7.198 14.5409 8.29082L7.37439 14.5521C6.12766 15.636 6.89902 17.6873 8.54937 17.6873H10.9531" stroke="white" stroke-width="1.5" stroke-linecap="round" stroke-linejoin="round"/>
<path d="M5.11157 5.59461H5.12193" stroke="white" stroke-width="2" stroke-linecap="round" stroke-linejoin="round"/>
<path d="M16.7717 16.3436H16.7821" stroke="white" stroke-width="2" stroke-linecap="round" stroke-linejoin="round"/>
</svg>
