<svg width="17" height="16" viewBox="0 0 17 16" fill="none" xmlns="http://www.w3.org/2000/svg">
<path d="M9.72596 2.34001L10.9726 4.68668C11.1426 5.01334 11.596 5.32668 11.9785 5.38668L14.238 5.74001C15.683 5.96668 16.023 6.95334 14.9818 7.92668L13.2251 9.58001C12.9276 9.86001 12.7647 10.4 12.8568 10.7867L13.3597 12.8333C13.7564 14.4533 12.8426 15.08 11.3197 14.2333L9.2018 13.0533C8.8193 12.84 8.18888 12.84 7.7993 13.0533L5.68138 14.2333C4.16555 15.08 3.24471 14.4467 3.64138 12.8333L4.1443 10.7867C4.23638 10.4 4.07346 9.86001 3.77596 9.58001L2.0193 7.92668C0.985129 6.95334 1.31805 5.96668 2.76305 5.74001L5.02263 5.38668C5.39805 5.32668 5.85138 5.01334 6.02138 4.68668L7.26805 2.34001C7.94805 1.06668 9.05305 1.06668 9.72596 2.34001Z" fill="#3D42DF" stroke="#3D42DF" stroke-width="1.5" stroke-linecap="round" stroke-linejoin="round"/>
</svg>
