<svg width="123" height="37" viewBox="0 0 123 37" fill="none" xmlns="http://www.w3.org/2000/svg">
<path d="M56.8525 12.1326L55.6186 14.3209C54.6681 13.651 53.3801 13.2478 52.2557 13.2478C50.9705 13.2478 50.1754 13.7846 50.1754 14.746C50.1754 15.914 51.5879 16.1858 53.6873 16.946C55.9441 17.7512 57.2413 18.6975 57.2413 20.7829C57.2413 23.636 55.0174 25.2384 51.821 25.2384C50.2632 25.2384 48.384 24.8326 46.9395 23.946L47.8395 21.52C49.0131 22.1454 50.4168 22.5163 51.6683 22.5163C53.3551 22.5163 54.1569 21.8883 54.1569 20.9601C54.1569 19.8979 52.9342 19.5787 50.9605 18.9192C48.7112 18.1615 47.1526 17.1674 47.1526 14.8594C47.1526 12.2566 49.2187 10.7617 52.1915 10.7617C54.2635 10.7617 55.9287 11.4241 56.8525 12.1326Z" fill="black"/>
<path d="M63.5922 24.9985V13.5157H59.375V11.0015H70.7022V13.5157H66.4975V24.9985H63.5922Z" fill="black"/>
<path d="M82.3876 16.662V19.1762H76.8274V22.4611H83.2785V24.9985H73.9229V11.0015H83.2785V13.5081H76.8274V16.662H82.3876Z" fill="black"/>
<path d="M89.7629 22.281L88.8445 24.9989H85.7988L91.0005 11.002H93.9251L99.2738 24.9985H96.1253L95.1869 22.2806H89.7629V22.281ZM92.4464 14.3406L90.5518 19.9449H94.3801L92.4464 14.3406Z" fill="black"/>
<path d="M108.749 24.5906L105.014 16.4848V24.9985H102.231V11.0015H105.007L109.67 21.1053L114.167 11.0015H116.967V24.9985H114.185V16.4117L110.389 24.5906H108.749Z" fill="black"/>
<path d="M122.584 12.7673C122.584 13.9702 121.69 14.7199 120.665 14.7199C119.636 14.7199 118.74 13.9702 118.74 12.7673C118.74 11.5648 119.636 10.8201 120.665 10.8201C121.691 10.8201 122.584 11.5648 122.584 12.7673ZM119.063 12.7673C119.063 13.7736 119.781 14.4057 120.665 14.4057C121.545 14.4057 122.261 13.7736 122.261 12.7673C122.261 11.758 121.545 11.1355 120.665 11.1355C119.784 11.1355 119.063 11.7655 119.063 12.7673ZM120.691 11.7722C121.189 11.7722 121.356 12.0377 121.356 12.3246C121.356 12.5875 121.202 12.7639 121.014 12.8538L121.46 13.6968H121.094L120.719 12.9495H120.331V13.6968H120.027V11.7722H120.691ZM120.334 12.6677H120.673C120.892 12.6677 121.022 12.5287 121.022 12.354C121.022 12.1776 120.929 12.0642 120.672 12.0642H120.333V12.6677H120.334Z" fill="black"/>
<path d="M0.753903 23.8203C3.03985 31.4425 10.1099 37.0006 18.4761 37.0006C28.6934 37.0006 36.9764 28.7177 36.9764 18.5003C36.9764 8.28294 28.6934 0 18.4761 0C8.67204 0 0.649261 7.62734 0.015625 17.2712C1.21468 19.2814 1.68008 20.525 0.752747 23.8203H0.753903Z" fill="url(#paint0_linear_1620_8341)"/>
<path d="M17.5232 13.8668L17.5249 13.9582L12.9981 20.5345C12.2651 20.5009 11.5297 20.6299 10.8313 20.9172C10.5273 21.0407 10.237 21.1958 9.96524 21.3797L0.0242097 17.2825C0.0242097 17.2825 -0.205888 21.0669 0.75266 23.8871L7.78047 26.787C8.12735 28.3641 9.21425 29.747 10.8111 30.4119C12.0673 30.9339 13.4794 30.9359 14.7371 30.4176C15.9949 29.8992 16.9955 28.9028 17.5192 27.6473C17.7985 26.9785 17.9333 26.2582 17.9146 25.5336L24.3857 20.9056L24.5447 20.9085C28.421 20.9085 31.5719 17.7484 31.5719 13.8668C31.5719 9.98523 28.4268 6.83671 24.5447 6.82861C20.67 6.82861 17.5174 9.98523 17.5174 13.8668H17.5232ZM16.4363 27.1928C15.5957 29.2163 13.2762 30.1685 11.2603 29.3285C10.3657 28.9525 9.64055 28.2607 9.22292 27.3848L11.5106 28.3329C11.864 28.48 12.2429 28.5561 12.6257 28.5567C13.0085 28.5573 13.3877 28.4825 13.7415 28.3365C14.0954 28.1905 14.417 27.9762 14.6881 27.7059C14.9591 27.4356 15.1742 27.1145 15.3211 26.761C15.6185 26.0467 15.6203 25.2436 15.326 24.528C15.0317 23.8125 14.4654 23.243 13.7514 22.9447L11.3811 21.9648C12.2934 21.6179 13.3306 21.6063 14.3007 22.0093C15.2835 22.4157 16.0351 23.1812 16.4375 24.1599C16.8398 25.1387 16.8375 26.2181 16.4317 27.1928M24.551 18.5584C23.3089 18.555 22.1187 18.0595 21.2412 17.1804C20.3637 16.3012 19.8703 15.1101 19.8693 13.868C19.8706 12.626 20.3641 11.4352 21.2416 10.5564C22.1191 9.67746 23.3091 9.1821 24.551 9.17873C25.7932 9.18179 26.9835 9.67702 27.8612 10.5559C28.7389 11.4349 29.2325 12.6258 29.2339 13.868C29.2328 15.1103 28.7394 16.3016 27.8616 17.1808C26.9838 18.0599 25.7934 18.5553 24.551 18.5584ZM21.0429 13.8605C21.0421 12.9272 21.4119 12.0318 22.0711 11.371C22.7302 10.7103 23.6247 10.3383 24.5579 10.3367C26.4976 10.3367 28.0753 11.915 28.0753 13.8605C28.0758 14.794 27.7055 15.6894 27.0459 16.35C26.3863 17.0105 25.4914 17.3821 24.5579 17.383C23.6248 17.3817 22.7303 17.0099 22.0711 16.3494C21.4119 15.6889 21.0418 14.7937 21.0423 13.8605H21.0429Z" fill="white"/>
<defs>
<linearGradient id="paint0_linear_1620_8341" x1="18.496" y1="0" x2="18.496" y2="37.0006" gradientUnits="userSpaceOnUse">
<stop stop-color="#111D2E"/>
<stop offset="0.212" stop-color="#051839"/>
<stop offset="0.407" stop-color="#0A1B48"/>
<stop offset="0.581" stop-color="#132E62"/>
<stop offset="0.738" stop-color="#144B7E"/>
<stop offset="0.873" stop-color="#136497"/>
<stop offset="1" stop-color="#1387B8"/>
</linearGradient>
</defs>
</svg>
