<svg width="127" height="39" viewBox="0 0 127 39" fill="none" xmlns="http://www.w3.org/2000/svg">
<path d="M19.3789 0.431152C9.39019 0.431152 1.20727 8.15503 0.429688 17.9709L10.6213 22.1966C11.4848 21.6043 12.528 21.2573 13.6504 21.2573C13.7509 21.2573 13.8511 21.2616 13.9504 21.2664L18.4826 14.6784C18.4826 14.6469 18.4826 14.6163 18.4826 14.5853C18.4826 10.6199 21.6992 7.39376 25.6537 7.39376C29.6078 7.39376 32.8243 10.6199 32.8243 14.5853C32.8243 18.5507 29.6078 21.7772 25.6537 21.7772C25.5991 21.7772 25.545 21.7772 25.4908 21.7729L19.0268 26.3982C19.0311 26.4823 19.0333 26.5681 19.0333 26.6534C19.0333 29.6304 16.6188 32.0513 13.6508 32.0513C11.0455 32.0513 8.86707 30.1865 8.37361 27.7169L1.08477 24.6968C3.34144 32.7009 10.6741 38.569 19.3789 38.569C29.8808 38.569 38.3938 30.0313 38.3938 19.5007C38.3938 8.96845 29.8804 0.431152 19.3789 0.431152Z" fill="white"/>
<path d="M12.3455 29.3651L10.0098 28.3973C10.4237 29.2616 11.1398 29.9854 12.0906 30.3828C14.1461 31.2415 16.5159 30.2634 17.3725 28.2003C17.7873 27.2028 17.7899 26.1015 17.3786 25.1014C16.9681 24.1009 16.1935 23.3206 15.1975 22.9042C14.2093 22.4917 13.1506 22.5068 12.2204 22.859L14.6332 23.8595C16.1492 24.4932 16.8662 26.239 16.2343 27.7594C15.6037 29.2802 13.8616 29.9992 12.3455 29.3651Z" fill="white"/>
<path d="M30.4313 14.5852C30.4313 11.9432 28.2881 9.79346 25.6531 9.79346C23.0186 9.79346 20.875 11.9432 20.875 14.5852C20.875 17.2277 23.0186 19.3765 25.6531 19.3765C28.2881 19.3765 30.4313 17.2272 30.4313 14.5852ZM22.0717 14.577C22.0717 12.5889 23.6789 10.9776 25.6613 10.9776C27.6437 10.9776 29.2509 12.5889 29.2509 14.577C29.2509 16.5651 27.6437 18.1764 25.6613 18.1764C23.6789 18.1764 22.0717 16.5647 22.0717 14.577Z" fill="white"/>
<path d="M58.7012 13.4783L57.4272 15.7242C56.4459 15.0366 55.1159 14.6228 53.9549 14.6228C52.628 14.6228 51.807 15.1737 51.807 16.1604C51.807 17.3592 53.2654 17.6381 55.4331 18.4183C57.7633 19.2447 59.1027 20.2159 59.1027 22.3561C59.1027 25.2844 56.8065 26.9289 53.5062 26.9289C51.8977 26.9289 49.9574 26.5125 48.4658 25.6025L49.3951 23.1127C50.6069 23.7545 52.0563 24.1352 53.3484 24.1352C55.0901 24.1352 55.918 23.4907 55.918 22.538C55.918 21.4479 54.6556 21.1203 52.6177 20.4435C50.2952 19.6658 48.6859 18.6455 48.6859 16.2768C48.6859 13.6055 50.8192 12.0713 53.8887 12.0713C56.028 12.0713 57.7474 12.7511 58.7012 13.4783Z" fill="white"/>
<path d="M65.6609 26.6827V14.8978H61.3066V12.3174H73.0022V14.8978H68.6608V26.6827H65.6609Z" fill="white"/>
<path d="M85.0671 18.1269V20.7073H79.3262V24.0786H85.987V26.6827H76.3271V12.3174H85.987V14.89H79.3262V18.1269H85.0671Z" fill="white"/>
<path d="M92.6818 23.8938L91.7336 26.6832H88.5889L93.9597 12.3179H96.9794L102.502 26.6828H99.2511L98.2822 23.8933H92.6818V23.8938ZM95.4526 15.7444L93.4964 21.4962H97.4492L95.4526 15.7444Z" fill="white"/>
<path d="M112.285 26.2642L108.428 17.945V26.6827H105.556V12.3174H108.422L113.236 22.6872L117.879 12.3174H120.77V26.6827H117.898V17.87L113.978 26.2642H112.285Z" fill="white"/>
<path d="M126.57 14.1293C126.57 15.3639 125.647 16.1333 124.589 16.1333C123.526 16.1333 122.602 15.3639 122.602 14.1293C122.602 12.8951 123.526 12.1309 124.589 12.1309C125.648 12.1309 126.57 12.8951 126.57 14.1293ZM122.935 14.1293C122.935 15.1621 123.677 15.8109 124.589 15.8109C125.497 15.8109 126.236 15.1621 126.236 14.1293C126.236 13.0934 125.497 12.4546 124.589 12.4546C123.679 12.4546 122.935 13.1012 122.935 14.1293ZM124.616 13.1081C125.13 13.1081 125.303 13.3805 125.303 13.6749C125.303 13.9448 125.143 14.1258 124.949 14.2181L125.409 15.0832H125.032L124.644 14.3164H124.244V15.0832H123.93V13.1081H124.616ZM124.247 14.0271H124.597C124.823 14.0271 124.957 13.8844 124.957 13.7051C124.957 13.5241 124.861 13.4077 124.596 13.4077H124.247V14.0271H124.247Z" fill="white"/>
</svg>
