<svg width="127" height="39" viewBox="0 0 127 39" fill="none" xmlns="http://www.w3.org/2000/svg">
<g clip-path="url(#clip0_1360_8167)">
<path d="M19.3789 0.43103C9.39019 0.43103 1.20727 8.1549 0.429688 17.9707L10.6213 22.1965C11.4848 21.6042 12.528 21.2572 13.6504 21.2572C13.7509 21.2572 13.8511 21.2615 13.9504 21.2663L18.4826 14.6783C18.4826 14.6468 18.4826 14.6162 18.4826 14.5851C18.4826 10.6197 21.6992 7.39364 25.6537 7.39364C29.6078 7.39364 32.8243 10.6197 32.8243 14.5851C32.8243 18.5505 29.6078 21.7771 25.6537 21.7771C25.5991 21.7771 25.545 21.7771 25.4908 21.7728L19.0268 26.3981C19.0311 26.4822 19.0333 26.568 19.0333 26.6533C19.0333 29.6303 16.6188 32.0511 13.6508 32.0511C11.0455 32.0511 8.86707 30.1863 8.37361 27.7168L1.08477 24.6967C3.34144 32.7008 10.6741 38.5689 19.3789 38.5689C29.8808 38.5689 38.3938 30.0312 38.3938 19.5006C38.3938 8.96833 29.8804 0.43103 19.3789 0.43103Z" fill="#BDBDC7"/>
<path d="M12.3455 29.3652L10.0098 28.3975C10.4237 29.2617 11.1398 29.9855 12.0906 30.383C14.1461 31.2416 16.5159 30.2635 17.3725 28.2005C17.7873 27.203 17.7899 26.1016 17.3786 25.1015C16.9681 24.101 16.1935 23.3208 15.1975 22.9044C14.2093 22.4918 13.1506 22.5069 12.2204 22.8591L14.6332 23.8596C16.1492 24.4933 16.8662 26.2391 16.2343 27.7595C15.6037 29.2803 13.8616 29.9993 12.3455 29.3652Z" fill="#BDBDC7"/>
<path d="M30.4313 14.5852C30.4313 11.9432 28.2881 9.79346 25.6531 9.79346C23.0186 9.79346 20.875 11.9432 20.875 14.5852C20.875 17.2277 23.0186 19.3765 25.6531 19.3765C28.2881 19.3765 30.4313 17.2272 30.4313 14.5852ZM22.0717 14.577C22.0717 12.5889 23.6789 10.9776 25.6613 10.9776C27.6437 10.9776 29.2509 12.5889 29.2509 14.577C29.2509 16.5651 27.6437 18.1764 25.6613 18.1764C23.6789 18.1764 22.0717 16.5647 22.0717 14.577Z" fill="#BDBDC7"/>
<path d="M58.7012 13.4782L57.4272 15.724C56.4459 15.0365 55.1159 14.6227 53.9549 14.6227C52.628 14.6227 51.807 15.1736 51.807 16.1603C51.807 17.3591 53.2654 17.638 55.4331 18.4182C57.7633 19.2446 59.1027 20.2158 59.1027 22.356C59.1027 25.2843 56.8065 26.9288 53.5062 26.9288C51.8977 26.9288 49.9574 26.5124 48.4658 25.6024L49.3951 23.1125C50.6069 23.7544 52.0563 24.135 53.3484 24.135C55.0901 24.135 55.918 23.4906 55.918 22.5379C55.918 21.4478 54.6556 21.1201 52.6177 20.4434C50.2952 19.6657 48.6859 18.6454 48.6859 16.2767C48.6859 13.6053 50.8192 12.0712 53.8887 12.0712C56.028 12.0712 57.7474 12.751 58.7012 13.4782Z" fill="#BDBDC7"/>
<path d="M65.6609 26.6827V14.8978H61.3066V12.3174H73.0022V14.8978H68.6608V26.6827H65.6609Z" fill="#BDBDC7"/>
<path d="M85.0671 18.1269V20.7073H79.3262V24.0786H85.987V26.6827H76.3271V12.3174H85.987V14.89H79.3262V18.1269H85.0671Z" fill="#BDBDC7"/>
<path d="M92.6818 23.8936L91.7336 26.6831H88.5889L93.9597 12.3177H96.9794L102.502 26.6827H99.2511L98.2822 23.8932H92.6818V23.8936ZM95.4526 15.7443L93.4964 21.496H97.4492L95.4526 15.7443Z" fill="#BDBDC7"/>
<path d="M112.285 26.2642L108.428 17.945V26.6827H105.556V12.3174H108.422L113.236 22.6872L117.879 12.3174H120.77V26.6827H117.898V17.87L113.978 26.2642H112.285Z" fill="#BDBDC7"/>
<path d="M126.57 14.1295C126.57 15.3641 125.647 16.1336 124.589 16.1336C123.526 16.1336 122.602 15.3641 122.602 14.1295C122.602 12.8954 123.526 12.1311 124.589 12.1311C125.648 12.1311 126.57 12.8954 126.57 14.1295ZM122.935 14.1295C122.935 15.1624 123.677 15.8111 124.589 15.8111C125.497 15.8111 126.236 15.1624 126.236 14.1295C126.236 13.0937 125.497 12.4548 124.589 12.4548C123.679 12.4548 122.935 13.1014 122.935 14.1295ZM124.616 13.1083C125.13 13.1083 125.303 13.3808 125.303 13.6752C125.303 13.945 125.143 14.1261 124.949 14.2183L125.409 15.0835H125.032L124.644 14.3166H124.244V15.0835H123.93V13.1083H124.616ZM124.247 14.0274H124.597C124.823 14.0274 124.957 13.8847 124.957 13.7054C124.957 13.5243 124.861 13.4079 124.596 13.4079H124.247V14.0274H124.247Z" fill="#BDBDC7"/>
</g>
<defs>
<clipPath id="clip0_1360_8167">
<rect width="127" height="39" fill="white"/>
</clipPath>
</defs>
</svg>
