<svg width="30" height="30" viewBox="0 0 30 30" fill="none" xmlns="http://www.w3.org/2000/svg">
<path d="M29.873 13.0435H16.9566H16.9566V0.126973C16.3161 0.0435938 15.6631 0 15 0C14.3368 0 13.6839 0.0435938 13.0435 0.126973V13.0434V13.0434H0.126973C0.0435938 13.6839 0 14.3369 0 15C0 15.6632 0.0435938 16.3161 0.126973 16.9565H13.0434H13.0434V29.873C13.6839 29.9564 14.3368 30 15 30C15.6631 30 16.3161 29.9565 16.9565 29.873V16.9566V16.9566H29.873C29.9564 16.3161 30 15.6632 30 15C30 14.3369 29.9564 13.6839 29.873 13.0435Z" fill="#D80027"/>
<path d="M18.9131 18.9131L25.6066 25.6067C25.9145 25.2989 26.2081 24.9772 26.4883 24.6437L20.7577 18.9131H18.9131V18.9131Z" fill="#D80027"/>
<path d="M11.0871 18.9131H11.087L4.39355 25.6065C4.70129 25.9144 5.02303 26.2081 5.35654 26.4883L11.0871 20.7576V18.9131Z" fill="#D80027"/>
<path d="M11.087 11.087V11.0869L4.39344 4.39331C4.08559 4.70104 3.79191 5.02278 3.51172 5.3563L9.24236 11.0869H11.087V11.087Z" fill="#D80027"/>
<path d="M18.9131 11.087L25.6067 4.39338C25.2989 4.08553 24.9772 3.79186 24.6437 3.51172L18.9131 9.24236V11.087Z" fill="#D80027"/>
</svg>
