<svg width="32" height="32" viewBox="0 0 32 32" fill="none" xmlns="http://www.w3.org/2000/svg">
<g clip-path="url(#clip0_1373_1486)">
<path d="M16.0797 31.22C24.4468 31.22 31.2297 24.4372 31.2297 16.07C31.2297 7.70293 24.4468 0.920044 16.0797 0.920044C7.71257 0.920044 0.929688 7.70293 0.929688 16.07C0.929688 24.4372 7.71257 31.22 16.0797 31.22Z" fill="#F0F0F0"/>
<path d="M15.4209 16.07H31.2296C31.2296 14.7026 31.0473 13.3779 30.7077 12.1178H15.4209V16.07Z" fill="#D80027"/>
<path d="M15.4209 8.1657H29.006C28.0785 6.65235 26.8928 5.31472 25.5102 4.2135H15.4209V8.1657Z" fill="#D80027"/>
<path d="M16.0791 31.22C19.6446 31.22 22.9218 29.9876 25.5097 27.9265H6.64844C9.23637 29.9876 12.5136 31.22 16.0791 31.22Z" fill="#D80027"/>
<path d="M3.15288 23.9744H29.0056C29.7502 22.7595 30.3276 21.4315 30.7074 20.0222H1.45117C1.83093 21.4315 2.40834 22.7595 3.15288 23.9744Z" fill="#D80027"/>
<path d="M7.94745 3.28593H9.32805L8.04385 4.2189L8.5344 5.72851L7.25026 4.79554L5.96612 5.72851L6.38984 4.42437C5.25915 5.36621 4.26813 6.46968 3.45145 7.6992H3.89382L3.07637 8.29306C2.94902 8.50552 2.82687 8.72135 2.70981 8.94037L3.10016 10.1418L2.3719 9.61265C2.19087 9.9962 2.02528 10.3884 1.87644 10.7887L2.3065 12.1125H3.89382L2.60962 13.0454L3.10016 14.555L1.81602 13.6221L1.0468 14.181C0.969811 14.7999 0.929688 15.4303 0.929688 16.07H16.0797C16.0797 7.70298 16.0797 6.71658 16.0797 0.920044C13.0869 0.920044 10.2969 1.78821 7.94745 3.28593ZM8.5344 14.555L7.25026 13.6221L5.96612 14.555L6.45666 13.0454L5.17246 12.1125H6.75977L7.25026 10.6028L7.74074 12.1125H9.32805L8.04385 13.0454L8.5344 14.555ZM8.04385 8.63216L8.5344 10.1418L7.25026 9.20881L5.96612 10.1418L6.45666 8.63216L5.17246 7.6992H6.75977L7.25026 6.18958L7.74074 7.6992H9.32805L8.04385 8.63216ZM13.9686 14.555L12.6845 13.6221L11.4003 14.555L11.8909 13.0454L10.6067 12.1125H12.194L12.6845 10.6028L13.175 12.1125H14.7623L13.4781 13.0454L13.9686 14.555ZM13.4781 8.63216L13.9686 10.1418L12.6845 9.20881L11.4003 10.1418L11.8909 8.63216L10.6067 7.6992H12.194L12.6845 6.18958L13.175 7.6992H14.7623L13.4781 8.63216ZM13.4781 4.2189L13.9686 5.72851L12.6845 4.79554L11.4003 5.72851L11.8909 4.2189L10.6067 3.28593H12.194L12.6845 1.77631L13.175 3.28593H14.7623L13.4781 4.2189Z" fill="#0052B4"/>
</g>
<defs>
<clipPath id="clip0_1373_1486">
<rect width="30.3" height="30.3" fill="white" transform="translate(0.929688 0.920044)"/>
</clipPath>
</defs>
</svg>
