<svg width="61" height="21" viewBox="0 0 61 21" fill="none" xmlns="http://www.w3.org/2000/svg">
<path d="M26.4447 19.6641H21.4688L24.5781 0.346313H29.554L26.4447 19.6641Z" fill="white"/>
<path d="M17.2803 0.346313L12.5345 13.6331L11.9719 10.7701L10.2996 2.06724C10.2996 2.06724 10.0951 0.346313 7.93696 0.346313H0.0920523L0 0.671895C1.8364 1.13787 3.59188 1.88372 5.20607 2.88378L9.53253 19.6641H14.7181L22.6346 0.346313H17.2803Z" fill="white"/>
<path d="M56.4279 19.6639H60.9999L57.0161 0.346023H53.0118C52.5271 0.30839 52.0431 0.427897 51.6302 0.687186C51.2172 0.946475 50.8969 1.33204 50.7156 1.78788L43.29 19.6639H48.4808L49.5036 16.7956H55.845L56.4279 19.6639ZM50.9508 12.8318L53.5692 5.59667L55.0369 12.8318H50.9508Z" fill="white"/>
<path d="M43.6788 4.99225L44.3896 0.857881C42.9529 0.332497 41.4422 0.0428739 39.9148 0C37.4448 0 31.579 1.09044 31.579 6.39793C31.579 11.3902 38.4625 11.4522 38.4625 14.0724C38.4625 16.6925 32.2898 16.2222 30.2493 14.5891L29.5078 18.9044C31.2875 19.6599 33.2032 20.033 35.1332 20C38.5289 20 43.6532 18.2222 43.6532 13.385C43.6532 8.36176 36.7083 7.89147 36.7083 5.71059C36.7083 3.52972 41.5513 3.80362 43.6788 4.99225Z" fill="white"/>
<path d="M11.9719 10.7753L10.2996 2.06724C10.2996 2.06724 10.0951 0.346313 7.93696 0.346313H0.0920523L0 0.671895C2.7017 1.36797 5.22253 2.64609 7.38976 4.41867C9.44697 6.09034 11.0282 8.2839 11.9719 10.7753Z" fill="white"/>
</svg>
