<svg width="118" height="35" viewBox="0 0 118 35" fill="none" xmlns="http://www.w3.org/2000/svg">
<g clip-path="url(#clip0_1360_8160)">
<path d="M118.172 28.2846L110.02 17.5669L117.468 7.83728H114.671L108.613 15.7751L102.555 7.83728H99.7749L107.206 17.5837L99.0713 28.3014H101.869L108.613 19.4258L115.374 28.3014H118.172" fill="#BDBDC7"/>
<path d="M62.6384 28.2846L54.5041 17.5669L61.9348 7.83728H59.1547L53.0968 15.7751L47.039 7.83728H44.2417L51.6896 17.5837L43.5381 28.3014H46.3354L53.0968 19.4258L59.8412 28.3014H62.6384" fill="#BDBDC7"/>
<path d="M72.4032 26.1411C72.4032 26.1411 67.1519 26.1411 66.1737 26.1411V18.7057C67.1348 18.7057 72.4032 18.7057 72.4032 18.7057C74.7715 18.7057 77.5859 19.3253 77.5859 22.2559C77.5859 25.6387 74.3253 26.1411 72.4032 26.1411ZM66.1737 9.96407C67.1348 9.96407 72.4032 9.96407 72.4032 9.96407C74.085 9.96407 76.9166 10.366 76.9166 13.2129C76.9166 15.3564 75.2691 16.6459 72.4032 16.6459C72.4032 16.6459 67.1519 16.6459 66.1737 16.6459V9.96407ZM78.1179 18.3373C77.6717 17.9689 77.2084 17.6842 76.7278 17.4832C78.2552 16.6794 79.2677 15.1555 79.2677 13.3971C79.2677 12.0909 78.77 7.83728 72.3861 7.83728H63.7883V16.6626C63.7883 16.6626 61.0082 16.6626 60.9224 16.6626C60.5449 17.1315 59.704 18.2535 59.3779 18.7057C59.6868 18.7057 63.7883 18.7057 63.7883 18.7057V28.2846H72.3861C77.0539 28.2846 79.9541 25.9904 79.9541 22.3062C79.9713 20.6985 79.3363 19.3253 78.1179 18.3373Z" fill="#BDBDC7"/>
<path d="M91.1426 26.5765C86.5949 26.5765 83.4201 23.0765 83.4201 18.0526C83.4201 13.0287 86.5949 9.5287 91.1426 9.5287C95.6732 9.5287 98.8308 13.0287 98.8308 18.0526C98.8308 23.0598 95.6732 26.5765 91.1426 26.5765ZM91.1426 7.36841C85.1706 7.36841 81.0176 11.756 81.0176 18.0526C81.0176 24.3493 85.1706 28.7368 91.1426 28.7368C97.0804 28.7368 101.233 24.3493 101.233 18.0526C101.233 11.756 97.0804 7.36841 91.1426 7.36841Z" fill="#BDBDC7"/>
<path d="M16.0159 34.8517C13.2719 34.5963 10.4922 33.6328 8.10119 32.1082C6.09873 30.8313 5.64669 30.309 5.64669 29.2603C5.64669 27.1592 8.01396 23.4755 12.0585 19.2811C14.3584 16.8975 17.5583 14.1038 17.9033 14.1773C18.5774 14.3243 23.9583 19.4552 25.9726 21.8658C29.1607 25.6888 30.6279 28.8154 29.8824 30.2083C29.3154 31.2686 25.8061 33.3387 23.2287 34.132C21.1033 34.7898 18.3117 35.0684 16.0159 34.8517ZM2.94635 27.078C1.2849 24.5861 0.444267 22.129 0.035845 18.5807C-0.098974 17.4083 -0.0513908 16.7388 0.34117 14.3321C0.828898 11.3332 2.57361 7.86622 4.6752 5.73029C5.57135 4.82098 5.65066 4.79776 6.74111 5.15762C8.06551 5.59486 9.47714 6.54675 11.6699 8.48533L12.9507 9.61521L12.2528 10.4549C9.00527 14.3475 5.58325 19.8653 4.29454 23.2782C3.59269 25.1316 3.31115 26.9967 3.61251 27.7706C3.81474 28.293 3.62837 28.0995 2.94635 27.078ZM32.1307 27.4997C32.2933 26.7181 32.0871 25.2787 31.5993 23.8276C30.5486 20.6857 27.0234 14.8351 23.7878 10.8612L22.7687 9.61134L23.871 8.62076C25.3104 7.32837 26.3097 6.55448 27.3882 5.90055C28.2408 5.38205 29.4541 4.92545 29.9776 4.92545C30.2987 4.92545 31.4328 6.07467 32.3488 7.33224C33.7683 9.2747 34.8112 11.6351 35.3386 14.0883C35.6796 15.6747 35.7074 19.0682 35.3941 20.647C35.1364 21.9432 34.5892 23.6264 34.0578 24.7718C33.6573 25.6269 32.666 27.2869 32.2298 27.8286C32.0078 28.0995 32.0078 28.0995 32.1307 27.4997ZM16.3093 4.32956C14.8144 3.58663 12.5106 2.79339 11.2377 2.5767C10.7896 2.50318 10.0323 2.46062 9.54455 2.48384C8.49375 2.53414 8.54134 2.48384 10.2266 1.70608C11.6263 1.05988 12.7961 0.68068 14.3822 0.355648C16.1665 -0.0119488 19.5172 -0.0158182 21.2738 0.347909C23.1692 0.738722 25.4016 1.5513 26.6586 2.30584L27.0314 2.53027L26.1749 2.48771C24.4698 2.40258 21.9875 3.07586 19.3189 4.34504C18.514 4.72811 17.8161 5.0338 17.7645 5.02219C17.717 5.01445 17.0587 4.70102 16.3093 4.32956Z" fill="#BDBDC7"/>
</g>
<defs>
<clipPath id="clip0_1360_8160">
<rect width="118" height="35" fill="white"/>
</clipPath>
</defs>
</svg>
