<svg width="126" height="38" viewBox="0 0 126 38" fill="none" xmlns="http://www.w3.org/2000/svg">
<path d="M125.295 29.9828L116.333 18.9845L124.521 9H121.446L114.785 17.1457L108.125 9H105.069L113.238 19.0016L104.295 30H107.37L114.785 20.892L122.219 30H125.295" fill="#107C10"/>
<path d="M66.2949 29.9828L57.7774 18.9845L65.5582 9H62.6471L56.3039 17.1457L49.9607 9H47.0317L54.8304 19.0016L46.2949 30H49.2239L56.3039 20.892L63.3659 30H66.2949" fill="#107C10"/>
<path d="M76.8543 27.7985C76.8543 27.7985 70.9845 27.7985 69.8911 27.7985V20.1622C70.9653 20.1622 76.8543 20.1622 76.8543 20.1622C79.5015 20.1622 82.6474 20.7985 82.6474 23.8084C82.6474 27.2826 79.0027 27.7985 76.8543 27.7985ZM69.8911 11.1843C70.9653 11.1843 76.8543 11.1843 76.8543 11.1843C78.7342 11.1843 81.8993 11.5971 81.8993 14.5209C81.8993 16.7224 80.0578 18.0467 76.8543 18.0467C76.8543 18.0467 70.9845 18.0467 69.8911 18.0467V11.1843ZM83.242 19.7838C82.7433 19.4054 82.2254 19.113 81.6883 18.9066C83.3955 18.0811 84.5272 16.516 84.5272 14.7101C84.5272 13.3686 83.971 9 76.8351 9H67.2248V18.0639C67.2248 18.0639 64.1172 18.0639 64.0213 18.0639C63.5993 18.5455 62.6594 19.6978 62.2949 20.1622C62.6402 20.1622 67.2248 20.1622 67.2248 20.1622V30H76.8351C82.0527 30 85.2945 27.6437 85.2945 23.86C85.3137 22.2088 84.604 20.7985 83.242 19.7838Z" fill="#107C10"/>
<path d="M96.8127 27.7759C92.0886 27.7759 88.7907 24.1724 88.7907 19C88.7907 13.8276 92.0886 10.2241 96.8127 10.2241C101.519 10.2241 104.799 13.8276 104.799 19C104.799 24.1552 101.519 27.7759 96.8127 27.7759ZM96.8127 8C90.609 8 86.2949 12.5172 86.2949 19C86.2949 25.4828 90.609 30 96.8127 30C102.981 30 107.295 25.4828 107.295 19C107.295 12.5172 102.981 8 96.8127 8Z" fill="#107C10"/>
<path d="M17.0404 36.9245C14.1268 36.6533 11.1753 35.6302 8.63636 34.0114C6.51008 32.6555 6.03009 32.1008 6.03009 30.9874C6.03009 28.7564 8.54373 24.8449 12.8384 20.391C15.2805 17.8601 18.6783 14.8936 19.0446 14.9716C19.7604 15.1278 25.474 20.5759 27.6129 23.1356C30.9981 27.1951 32.556 30.5149 31.7644 31.994C31.1623 33.1198 27.4361 35.318 24.6993 36.1603C22.4425 36.8587 19.4783 37.1546 17.0404 36.9245ZM3.16276 28.6701C1.39858 26.0241 0.505959 23.415 0.0722809 19.6474C-0.0708749 18.4024 -0.0203493 17.6916 0.396487 15.136C0.914373 11.9517 2.76698 8.27034 4.99852 6.00233C5.95009 5.03678 6.0343 5.01213 7.19217 5.39424C8.59847 5.85852 10.0974 6.86927 12.4258 8.92773L13.7858 10.1275L13.0447 11.0191C9.59635 15.1524 5.96272 21.0114 4.59432 24.6353C3.84907 26.6034 3.55012 28.5838 3.87012 29.4055C4.08485 29.9602 3.88696 29.7548 3.16276 28.6701ZM34.1518 29.1179C34.3244 28.288 34.1054 26.7595 33.5876 25.2188C32.4718 21.8825 28.7287 15.6701 25.293 11.4505L24.2109 10.1234L25.3814 9.07153C26.9098 7.69923 27.9708 6.87748 29.1161 6.18311C30.0213 5.63254 31.3097 5.14772 31.8655 5.14772C32.2065 5.14772 33.4107 6.368 34.3833 7.70333C35.8907 9.76591 36.998 12.2722 37.558 14.8771C37.9201 16.5617 37.9496 20.165 37.617 21.8414C37.3433 23.2178 36.7623 25.0051 36.1981 26.2213C35.7728 27.1293 34.7202 28.8919 34.257 29.4672C34.0212 29.7548 34.0212 29.7548 34.1518 29.1179ZM17.352 4.51498C15.7647 3.7261 13.3184 2.88382 11.9668 2.65373C11.4911 2.57567 10.6869 2.53047 10.169 2.55512C9.0532 2.60854 9.10372 2.55512 10.8932 1.72927C12.3795 1.04312 13.6215 0.640463 15.3057 0.295332C17.2004 -0.0949956 20.7583 -0.0991042 22.6235 0.287114C24.6361 0.702094 27.0066 1.56492 28.3413 2.36612L28.7371 2.60443L27.8277 2.55923C26.0172 2.46884 23.3814 3.18375 20.5478 4.53141C19.693 4.93817 18.952 5.26276 18.8973 5.25043C18.8467 5.24222 18.1478 4.90941 17.352 4.51498Z" fill="#107C10"/>
</svg>
